<svg xmlns="http://www.w3.org/2000/svg" width="266.144" height="464.359" viewBox="0 0 266.144 464.359"><g transform="translate(26.544 338.155)"><path d="M337.176,731.425c-46.872,129.83,50.264,103.071-23.951,126.2h64.783C298.864,749.187,425.7,740.039,337.176,731.425Z" transform="translate(-313.225 -731.425)" fill="#840710"/><g transform="translate(86.402 6.328)"><path d="M435.473,755.494c-37.426,95.092,52.305,83.292-19.365,103.353h64.784c-50.184-64.847-19.074-90.5-5.985-119.875Z" transform="translate(-416.108 -738.972)" fill="#840710"/></g></g><g transform="translate(0 176.846)"><g transform="translate(39.618 115.845)"><path d="M334.285,732.078c35.974,23.338-4.307-36.257-5.492-54.872Z" transform="translate(-328.793 -677.206)" fill="#840710"/></g><path d="M328.065,539.051C271.353,607.4,276.11,811.105,292.639,713.907c-8.629,50.742,9.988,40.722,10.829.934-1.2,57,20.68,37.68,11.631-1.735,26.614,115.915-7.5-154.866,23.662-166.847" transform="translate(-281.618 -539.051)" fill="#aa1721"/></g><g transform="translate(7.233)"><path d="M396.385,328.383s88.725,1.581,96.647,139.21.527,177.7-23.983,200.638c-21.813,20.409-52.068,35.071-93.262,24s-85.557-33.22-85.557-101.243c0-41.019,18.783-61.363,33.624-78.6,9.77-11.351,17.78-24.27,17.78-30.55,0-7.6-.575-14.068-5.985-20.038a67.887,67.887,0,0,1-15.844-29.881c-5-19.725-2.9-47.634,11.93-68.943C343.77,345.684,370.506,325.746,396.385,328.383Z" transform="translate(-290.231 -328.147)" fill="#ed1c24"/></g><g transform="translate(184.379 156.408)"><g transform="translate(0 152.551)"><path d="M521.1,768.866c-49.626,33.912,9.3-55.48,7.232-72.259Z" transform="translate(-501.166 -696.607)" fill="#840710"/></g><g transform="translate(4.09)"><path d="M520.12,514.677c75.8,93.09,73.277,353.607,46.651,230.26,14.257,66.042-11.833,47.041-14.259,1.23,4.049,76.46-19.146,51.009-15.316-2.285-4.005,55.719-30.837,50.848-19.185,9.262,15.967-82.53,18.149-166.222-11.975-228.975" transform="translate(-506.036 -514.677)" fill="#ed1c24"/></g></g><g transform="translate(59.49 112.926)"><g transform="translate(30.774 8.371)"><path d="M389.8,474.643c1.329,9.89,19.18,10.031,12.813-1.5" transform="translate(-389.212 -472.859)" fill="#f2f2f2"/><path d="M398.629,482.479a10.086,10.086,0,0,1-2.637-.366,9.114,9.114,0,0,1-6.892-7.446l1.177-.158a7.945,7.945,0,0,0,6.028,6.459c2.6.707,5.115.21,6.261-1.244,1.124-1.425.921-3.619-.585-6.347l1.041-.573c2.217,4.015,1.484,6.378.478,7.654A6.061,6.061,0,0,1,398.629,482.479Z" transform="translate(-389.1 -472.804)"/></g><path d="M366.022,469.778c-4.255,9.732-16.828,1.458-11.614-6.572" transform="translate(-352.569 -462.883)" fill="#f2f2f2"/><path d="M360.061,474.719a7.887,7.887,0,0,1-6.6-3.956,7.363,7.363,0,0,1,.335-7.942l1,.646a6.121,6.121,0,0,0-.3,6.7,6.645,6.645,0,0,0,5.871,3.357c2.141-.123,3.918-1.56,5.005-4.045l1.088.475c-1.275,2.916-3.415,4.6-6.026,4.754C360.306,474.715,360.184,474.719,360.061,474.719Z" transform="translate(-352.456 -462.821)"/></g><g transform="translate(51.882 101.107)"><path d="M382.944,471.077a55.916,55.916,0,0,1-10.426-1.008c-14.545-2.767-25.418-10.449-29.085-20.548a.594.594,0,0,1,1.117-.4c3.523,9.7,14.062,17.1,28.192,19.786,13.6,2.587,26.74-.177,32.683-6.883a.6.6,0,0,1,.839-.051.592.592,0,0,1,.051.838C401.588,468.139,392.957,471.077,382.944,471.077Z" transform="translate(-343.396 -448.726)"/></g><g transform="translate(53.769 43.845)"><g transform="translate(41.552 0)"><g transform="translate(0)"><ellipse cx="12.769" cy="18.288" rx="12.769" ry="18.288" transform="translate(0 7.3) rotate(-16.615)"/><path d="M415.874,420.616a12.845,12.845,0,0,1-7.922-3.065,23.343,23.343,0,0,1-7.484-11.613c-2.981-9.972.337-19.8,7.394-21.9,3.461-1.033,7.267-.086,10.722,2.657a23.343,23.343,0,0,1,7.484,11.614c2.98,9.972-.337,19.8-7.395,21.9A9.757,9.757,0,0,1,415.874,420.616Zm-5.219-35.8a8.583,8.583,0,0,0-2.453.355c-6.429,1.916-9.387,11.078-6.6,20.423a22.147,22.147,0,0,0,7.085,11.025c3.143,2.495,6.565,3.364,9.641,2.449,6.43-1.915,9.389-11.077,6.6-20.423a22.153,22.153,0,0,0-7.084-11.024A11.693,11.693,0,0,0,410.655,384.821Z" transform="translate(-395.802 -380.952)"/></g><g transform="translate(9.335 2.355)"><ellipse cx="4.404" cy="7.263" rx="4.404" ry="7.263" transform="translate(0 2.517) rotate(-16.615)" fill="#fff"/><path d="M414.007,399.234a4.85,4.85,0,0,1-3.2-1.418A10.657,10.657,0,0,1,407.936,393c-1.261-4.22-.147-8.152,2.537-8.951s5.775,1.878,7.036,6.1h0c1.261,4.219.146,8.152-2.538,8.951A3.362,3.362,0,0,1,414.007,399.234Zm-2.579-14.142a2.17,2.17,0,0,0-.615.088c-1.978.589-2.774,4.012-1.739,7.475a9.463,9.463,0,0,0,2.535,4.281,3.235,3.235,0,0,0,3.022,1.02c1.977-.589,2.773-4.013,1.738-7.476h0C415.44,387.369,413.289,385.092,411.428,385.092Z" transform="translate(-406.426 -383.351)"/></g></g><g transform="translate(0 2.494)"><g transform="translate(0 0)"><ellipse cx="12.276" cy="8.572" rx="12.276" ry="8.572" transform="translate(0 23.526) rotate(-73.385)"/><path d="M356.039,410.54a6.74,6.74,0,0,1-1.936-.282c-4.841-1.441-7.127-8.145-5.1-14.942a15.866,15.866,0,0,1,5.089-7.893,8.078,8.078,0,0,1,7.374-1.819c4.841,1.442,7.126,8.146,5.094,14.943a15.86,15.86,0,0,1-5.089,7.893A8.813,8.813,0,0,1,356.039,410.54Zm3.5-24.029a7.652,7.652,0,0,0-4.7,1.841,14.674,14.674,0,0,0-4.69,7.3c-1.844,6.171.083,12.212,4.3,13.467a6.929,6.929,0,0,0,6.294-1.611,14.667,14.667,0,0,0,4.69-7.3c1.843-6.17-.084-12.211-4.3-13.467A5.539,5.539,0,0,0,359.542,386.51Z" transform="translate(-346.064 -383.718)"/></g><g transform="translate(8.373 1.466)"><ellipse cx="4.876" cy="2.956" rx="4.876" ry="2.956" transform="translate(0 9.026) rotate(-67.765)" fill="#fff"/><path d="M359.2,396.107a2.479,2.479,0,0,1-.942-.184c-1.843-.751-2.375-3.563-1.214-6.4h0c1.162-2.838,3.515-4.472,5.357-3.719a3.1,3.1,0,0,1,1.755,2.568,7.884,7.884,0,0,1-2.846,6.948A3.587,3.587,0,0,1,359.2,396.107Zm-1.056-6.135c-.879,2.147-.621,4.37.563,4.853a2.077,2.077,0,0,0,1.9-.459,6.719,6.719,0,0,0,2.379-5.812,2.073,2.073,0,0,0-1.03-1.654c-1.191-.485-2.929.923-3.808,3.071Z" transform="translate(-355.744 -385.232)"/></g></g></g><g transform="translate(39.813 91.13)"><g transform="translate(71.222 5.774)"><path d="M441.846,459.561c-.931,21.585-27.219,20.668-28.013,0C414.765,437.975,441.052,438.892,441.846,459.561Z" transform="translate(-413.833 -443.714)" fill="#840710"/></g><path d="M344.078,445.156c-.109,10.068-13.99,12.1-15.052,0C329.135,435.088,343.016,433.06,344.078,445.156Z" transform="translate(-329.026 -436.827)" fill="#840710"/></g><g transform="translate(125.042 192.808)"><path d="M450.065,589.491c-1.161-.372-12.74-8.008-17.516-17.49-4.747-9.423-.244-14.341,3.785-13.886,5.409.611,11.531,9.492,11.531,9.492.052-.023,9.091-10.094,13.292-8.173,3.047,1.393,5.457,11.162-2.9,21.8A59.228,59.228,0,0,1,450.065,589.491Z" transform="translate(-430.511 -558.086)" fill="#840710"/></g></svg>