<svg xmlns="http://www.w3.org/2000/svg" width="224.614" height="372.831" viewBox="0 0 224.614 372.831"><g transform="translate(2.64)"><g transform="translate(-879.726 -823.44)"><path d="M879.726,960.2s11.132,25.047,33,35.782,37.546,7.156,37.546,7.156" fill="none" stroke="#000" stroke-linecap="round" stroke-miterlimit="10" stroke-width="4"/><path d="M926.242,1194.771h28.7s-17.332-26.492-17.37-39.612,5.972-32.853,13.45-39.612" fill="none" stroke="#000" stroke-linecap="round" stroke-linejoin="round" stroke-width="3"/><path d="M1074.139,992.168c0,93.186-43.635,135.811-86.671,135.811-24.643,0-55.432-18.213-56.853-48.9-1.06-22.906,9.458-42.778,20.061-81.168,3.87-14.012-18.1-44.376-22.844-57.187-9.129-24.649-13.8-51.225-8.528-70.37,9.119-33.128,54.214-46.913,76.911-46.913C1039.251,823.44,1074.139,898.982,1074.139,992.168Z" fill="#ed1c24"/><path d="M1071.838,951.312a358.639,358.639,0,0,1,2.3,40.856c0,93.186-43.635,135.811-86.671,135.811-24.643,0-55.432-18.213-56.853-48.9-1.06-22.906,9.458-42.778,20.061-81.168a16.684,16.684,0,0,0,.24-6.642Z" fill="#29abe2"/><path d="M941.622,1083.044c3.819,6.246,11.559,5.763,14.93-2.056a53.6,53.6,0,0,0,3.247-10.764c2.413-12.1,2.816-16.03,5.026-25.36,2.8-11.834,5.931-20.582,9.155-30.059,3.115-9.159-6-14.359-11.466-10.072s-12.543,22.958-16.686,39.582c-2.341,9.394-3.692,18.545-5.024,26.569C940.048,1075.442,939.683,1079.872,941.622,1083.044Z" fill="#fff"/></g><path d="M954.943,949.236s6.571,6.288,15.231,6.4c10.734.134,18.226-6.259,19.618-8.843" transform="translate(-879.726 -823.44)" fill="none" stroke="#000" stroke-linecap="round" stroke-linejoin="round" stroke-width="1"/><g transform="translate(-879.726 -823.44)"><ellipse cx="5.963" cy="6.353" rx="5.963" ry="6.353" transform="translate(943.929 938.605)" fill="#840710"/><circle cx="7.55" cy="7.55" r="7.55" transform="translate(985.445 934.579)" fill="#840710"/></g><g transform="translate(-879.726 -823.44)"><ellipse cx="12.325" cy="17.99" rx="12.325" ry="17.99" transform="matrix(0.979, -0.206, 0.206, 0.979, 976.086, 893.161)" stroke-width="1" stroke="#000" stroke-linecap="round" stroke-linejoin="round"/><ellipse cx="14.625" cy="10.019" rx="14.625" ry="10.019" transform="matrix(0.206, -0.979, 0.979, 0.206, 932.911, 921.927)" stroke-width="1" stroke="#000" stroke-linecap="round" stroke-linejoin="round"/><ellipse cx="5.996" cy="6.538" rx="5.996" ry="6.538" transform="translate(982.366 893.854)" fill="#fff"/><ellipse cx="4.875" cy="5.315" rx="4.875" ry="5.315" transform="translate(942.395 896.999)" fill="#fff"/></g><path d="M1047.9,973.722s41.347,15.228,48.5-28.764,1.988-55.919,1.988-55.919" transform="translate(-879.726 -823.44)" fill="none" stroke="#000" stroke-linecap="round" stroke-miterlimit="10" stroke-width="3"/><path d="M986.51,1194.771h28.7s-17.332-26.492-17.37-39.612,5.739-38.179,13.217-44.938" transform="translate(-879.726 -823.44)" fill="none" stroke="#000" stroke-linecap="round" stroke-linejoin="round" stroke-width="3"/></g></svg>