<svg xmlns="http://www.w3.org/2000/svg" xmlns:xlink="http://www.w3.org/1999/xlink" width="100" height="100" viewBox="0 0 100 100"><defs><clipPath id="a"><circle cx="44" cy="44" r="44" transform="translate(0.032 0.033)" fill="none"/></clipPath></defs><g transform="translate(-694 -2291)"><circle cx="50" cy="50" r="50" transform="translate(694 2291)" fill="#e1251b"/><g transform="translate(308.907 1578.906)"><circle cx="44" cy="44" r="44" transform="translate(391.093 718.094)" fill="#6fceea"/><g transform="translate(391.061 718.061)"><g transform="translate(0 0)" clip-path="url(#a)"><path d="M378.674,765.718c8.631-10.142,21.015-21.272,34.53-19.855,14.128,1.482,18.718,15.546,33.379,18.416,9,1.762,22.531-.548,42.012-19.279" transform="translate(-389.602 -721.249)" fill="none" stroke="#407784" stroke-miterlimit="10" stroke-width="5"/><path d="M378.674,779.665c8.631-10.142,21.015-21.272,34.53-19.855,14.128,1.482,18.718,15.546,33.379,18.417,9,1.762,22.531-.548,42.012-19.28" transform="translate(-389.602 -722.897)" fill="none" stroke="#407784" stroke-miterlimit="10" stroke-width="5"/><path d="M378.674,793.223c8.631-10.142,21.015-21.272,34.53-19.855,14.128,1.482,18.718,15.546,33.379,18.416,9,1.762,22.531-.548,42.012-19.279" transform="translate(-389.602 -724.5)" fill="none" stroke="#407784" stroke-miterlimit="10" stroke-width="5"/></g></g></g></g></svg>