<svg xmlns="http://www.w3.org/2000/svg" width="100" height="100" viewBox="0 0 100 100"><g transform="translate(-694 -2291)"><circle cx="50" cy="50" r="50" transform="translate(694 2291)" fill="#e1251b"/><path d="M1277.178,170.087a11.472,11.472,0,0,1-1.463-.25,7.894,7.894,0,0,0-8.462,2.12c-5.122,5.31-4.533,3.824-.223,8.288.494.511,1.087.949,1.534,1.49a2.163,2.163,0,0,0,2.988.543c.928-.457,1.844-.925,2.931,0,5.988,5.124,12.858,5.3,19.714,2.128,8.325-3.847,14.06-9.846,15.214-18.772a11.2,11.2,0,0,0-.459-4.607c-.458-1.493-.042-2.176,1.316-2.988,6.12-3.666,9.362-10.495,7.908-16.836-1.616-7.051-6.237-11.645-13.886-13.341a18.478,18.478,0,0,0-18.916,6.974,15.645,15.645,0,0,0-.046,18.52c.392.548.781,1.1,1.452,2.041-2.471-.865-4.485-1.523-6.455-2.276a1.72,1.72,0,0,0-2.431.836c-3.01,4.67-3.02,4.63,1.122,8.476a4.434,4.434,0,0,1,1.218,2.226,2.6,2.6,0,0,1-1.825.926c-3.756-1-7.563-2.013-10.319-4.834a5.6,5.6,0,0,1,1.7-9.316c6.987-3.124,7.954-9.036,4.611-14.589-2.845-4.727-7.159-8.233-11.728-11.486-.588-.418-1.188-.822-1.77-1.246a5.479,5.479,0,0,1-.8-.942,44.045,44.045,0,0,1,10.618-5.453c14.117-5.346,27.552-1.867,38.768,6.486,9.748,7.259,14.664,17.354,15.8,28.776a39.48,39.48,0,0,1-10.1,31.246,40.857,40.857,0,0,1-26.15,13.594,34.193,34.193,0,0,1-19.355-2.114c-14.486-5.867-23.151-16.679-26.081-31.018-2.852-13.959.708-26.7,11.336-37.161a2.593,2.593,0,0,1,3.824.041c3.472,3.03,7.012,5.994,10.408,9.094a10.027,10.027,0,0,1,1.959,3.034c1.329,2.673,1.4,6.2-2.65,7.889-5.811,2.42-7.126,6.931-5.9,11.735.964,3.769,3.985,6.006,7.495,7.646,2.306,1.078,4.807,1.8,7.221,2.679Z" transform="translate(-540.087 2184.443)" fill="#f2cd00"/></g></svg>