<svg xmlns="http://www.w3.org/2000/svg" width="100" height="100" viewBox="0 0 100 100"><g transform="translate(-694 -2291)"><circle cx="50" cy="50" r="50" transform="translate(694 2291)" fill="#e1251b"/><g transform="translate(38.962 1450.746)"><g transform="translate(677.341 849.511)"><rect width="18.594" height="86.186" rx="9.297" transform="matrix(0.825, 0.565, -0.565, 0.825, 48.73, 0)" fill="#cc9a62"/><g transform="translate(6.699 10.82)"><line x2="9.494" y2="6.508" transform="translate(38.909)" fill="none" stroke="#a67c52" stroke-linecap="round" stroke-miterlimit="10" stroke-width="4"/><line x2="9.494" y2="6.508" transform="translate(32.424 9.46)" fill="none" stroke="#a67c52" stroke-linecap="round" stroke-miterlimit="10" stroke-width="4"/><line x2="9.494" y2="6.508" transform="translate(25.939 18.92)" fill="none" stroke="#a67c52" stroke-linecap="round" stroke-miterlimit="10" stroke-width="4"/><line x2="9.494" y2="6.508" transform="translate(19.454 28.38)" fill="none" stroke="#a67c52" stroke-linecap="round" stroke-miterlimit="10" stroke-width="4"/><line x2="9.494" y2="6.508" transform="translate(12.97 37.84)" fill="none" stroke="#a67c52" stroke-linecap="round" stroke-miterlimit="10" stroke-width="4"/><line x2="9.494" y2="6.508" transform="translate(6.485 47.3)" fill="none" stroke="#a67c52" stroke-linecap="round" stroke-miterlimit="10" stroke-width="4"/><line x2="9.494" y2="6.508" transform="translate(0 56.76)" fill="none" stroke="#a67c52" stroke-linecap="round" stroke-miterlimit="10" stroke-width="4"/></g></g><g transform="translate(683.538 863.609)"><path d="M700.741,869.327a38.828,38.828,0,0,1,9.4-1.481,7.47,7.47,0,0,1,3.8.726,2.145,2.145,0,0,1,1.2,1.792q.879,9.915,1.785,19.83c.171,1.891.311,3.785.517,5.672a2.538,2.538,0,0,1-.883,2.265,11.251,11.251,0,0,1-3.65,2.118,28.109,28.109,0,0,1-8.217,2.023,15.1,15.1,0,0,1-2.9-.115,2.433,2.433,0,0,1-1.957-1.52q-5.478-11.572-10.983-23.131a2.373,2.373,0,0,1,.588-2.735,9.909,9.909,0,0,1,3.718-2.607C695.641,871.1,700.721,869.272,700.741,869.327Zm12.211,4.371a43.124,43.124,0,0,1-20.49,5.594c.215.461.422.91.634,1.356,2.914,6.127,5.841,12.245,8.723,18.387a1.26,1.26,0,0,0,1.36.814,22.678,22.678,0,0,0,5.865-.917,21.77,21.77,0,0,0,5.189-2.123,1.157,1.157,0,0,0,.7-1.258c-.561-5.909-1.074-11.822-1.6-17.734C713.207,876.442,713.078,875.07,712.953,873.7Zm-.374-3.069a3.53,3.53,0,0,0-.684-.161,43.1,43.1,0,0,0-4.336.052,40.146,40.146,0,0,0-9.685,2.322,23.513,23.513,0,0,0-5.633,2.743c-.335.237-.636.522-1.054.869a5.058,5.058,0,0,0,.716.165,20.744,20.744,0,0,0,2.525.1,40.876,40.876,0,0,0,14.794-3.869A11.2,11.2,0,0,0,712.578,870.629Z" transform="translate(-688.63 -867.845)" fill="#6fceea"/><path d="M715.192,915.211a25.132,25.132,0,0,1-6.992,1.073,7.811,7.811,0,0,1-1.889-.323,1.157,1.157,0,0,1-.789-1.449,1.128,1.128,0,0,1,1.312-.912,10.906,10.906,0,0,0,4.645-.1A23.054,23.054,0,0,0,719,910.923a7.54,7.54,0,0,0,1.14-.852,1.243,1.243,0,1,1,1.736,1.771,8.38,8.38,0,0,1-3.018,1.978C717.475,914.407,716.047,914.891,715.192,915.211Z" transform="translate(-692.523 -877.503)" fill="#6fceea"/><path d="M707.538,900.544a1.374,1.374,0,0,0,1.191-1.074,1.173,1.173,0,0,0-.441-1.179,1.874,1.874,0,0,0-2.545.7,1.166,1.166,0,0,0,.221,1.241A1.386,1.386,0,0,0,707.538,900.544Z" transform="translate(-692.563 -874.82)" fill="#6fceea"/><path d="M702.408,890.092c1.087-.3,1.524-1.183.983-1.978a1.31,1.31,0,0,0-1.52-.468c-.661.155-1.26.413-1.347,1.182C700.434,889.63,701.07,890.51,702.408,890.092Z" transform="translate(-691.376 -872.405)" fill="#6fceea"/><path d="M710.307,891.879a1.357,1.357,0,0,0,1.143-.987,1.2,1.2,0,0,0-1.281-1.5,3.7,3.7,0,0,0-.857.2,1.256,1.256,0,0,0-.894,1.5,1.286,1.286,0,0,0,1.57.876C710.1,891.943,710.2,891.907,710.307,891.879Z" transform="translate(-693.192 -872.821)" fill="#6fceea"/></g><path d="M755.038,900.2l-1.146-1.853c-.348-.431-.684-.872-1.043-1.293a10.616,10.616,0,0,0-7.94-4.029c-3.852-.138-7.7-.24-11.557-.351a3.02,3.02,0,0,0-.675.062,2.376,2.376,0,0,0-1.912,3.078,2.57,2.57,0,0,0,2.375,1.749c1.446.128,2.894.227,4.341.34.093.007.185.026.354.052l-.408.252-13.663,8.444a2.02,2.02,0,1,0,2.137,3.413q4.12-2.558,8.247-5.1c.048-.03.1-.062.146-.088a.672.672,0,0,1,.714,1.137c-.091.068-.191.123-.287.182q-5.225,3.23-10.451,6.457a2,2,0,0,0-1.046,1.719,5.279,5.279,0,0,0,.1.8l.394.637a2.289,2.289,0,0,0,3.034.06c3.394-2.145,6.822-4.236,10.237-6.346.435-.269.817-.215,1.039.138s.107.727-.325,1c-.557.351-1.117.694-1.678,1.039q-3.9,2.4-7.794,4.8a2.036,2.036,0,0,0-.349,3.32,2.124,2.124,0,0,0,2.618.038q5.244-3.261,10.5-6.5a.662.662,0,0,1,.982.155.674.674,0,0,1-.288.979c-.047.032-.1.06-.145.09q-3.328,2.058-6.656,4.116a7.07,7.07,0,0,0-.733.49,2,2,0,0,0,2.112,3.36,9.036,9.036,0,0,0,.819-.479q7.208-4.453,14.411-8.913a14.229,14.229,0,0,0,1.448-1.011,8.5,8.5,0,0,0,2.928-9.933C755.636,901.524,755.32,900.87,755.038,900.2Z" transform="translate(-12.955 -9.972)" fill="#d8d298"/><path d="M667.993,900.48l1.146-1.852c.348-.432.684-.872,1.044-1.294a10.612,10.612,0,0,1,7.94-4.029c3.852-.139,7.7-.24,11.557-.352a2.935,2.935,0,0,1,.675.062,2.376,2.376,0,0,1,1.912,3.078,2.568,2.568,0,0,1-2.375,1.749c-1.446.128-2.894.228-4.341.34-.093.008-.185.027-.354.051l.408.253q6.832,4.222,13.663,8.444a2.02,2.02,0,1,1-2.137,3.412q-4.12-2.557-8.247-5.1c-.048-.03-.1-.061-.146-.087a.672.672,0,0,0-.714,1.137c.091.068.191.122.288.182q5.225,3.23,10.451,6.457a1.993,1.993,0,0,1,1.045,1.718,5.288,5.288,0,0,1-.1.8l-.394.637a2.289,2.289,0,0,1-3.034.059c-3.394-2.144-6.822-4.235-10.237-6.346-.435-.268-.817-.215-1.039.138s-.107.727.324,1c.557.351,1.117.694,1.678,1.039q3.9,2.4,7.794,4.8a2.037,2.037,0,0,1,.349,3.32,2.125,2.125,0,0,1-2.618.038q-5.244-3.261-10.5-6.5a.662.662,0,0,0-.982.155.673.673,0,0,0,.288.979c.047.031.1.06.145.09q3.328,2.057,6.656,4.116a7.044,7.044,0,0,1,.733.489,2,2,0,0,1-2.112,3.36,9.141,9.141,0,0,1-.82-.478q-7.207-4.454-14.41-8.913a14.209,14.209,0,0,1-1.448-1.011,8.5,8.5,0,0,1-2.927-9.934C667.395,901.8,667.712,901.147,667.993,900.48Z" transform="translate(0 -10.036)" fill="#603813"/></g></g></svg>