<svg xmlns="http://www.w3.org/2000/svg" width="100" height="100" viewBox="0 0 100 100"><g transform="translate(-694 -2291)"><circle cx="50" cy="50" r="50" transform="translate(694 2291)" fill="#e1251b"/><g transform="translate(683.632 1450.095)"><path d="M100.274,908.4l-3.231,2.126c-.882.435-1.754.892-2.648,1.3-5.189,2.382-10.466,2.794-15.8.544-6.3-2.659-12.584-5.381-18.87-8.085a5.269,5.269,0,0,1-1.04-.6,4.219,4.219,0,0,1-.775-6.387,4.562,4.562,0,0,1,5.134-1.038c2.424.876,4.829,1.8,7.244,2.7.155.059.318.1.608.183l-.469-.713q-7.838-11.91-15.677-23.822a3.587,3.587,0,1,1,6-3.894q4.717,7.2,9.458,14.389c.055.084.108.171.17.25a1.193,1.193,0,0,0,2-1.3c-.1-.176-.215-.34-.326-.509q-5.995-9.111-11.993-18.218a3.54,3.54,0,0,1-.4-3.549,9.4,9.4,0,0,1,.753-1.217l1.11-.73c2.245-.633,3.714.286,4.93,2.175,3.86,5.993,7.813,11.925,11.732,17.879.5.758,1.153.958,1.776.555s.717-1.091.226-1.852c-.634-.981-1.28-1.954-1.923-2.928q-4.477-6.78-8.957-13.558a3.615,3.615,0,0,1,1.923-5.606,3.77,3.77,0,0,1,4.242,1.9q6,9.175,12.04,18.327a1.176,1.176,0,0,0,1.7.485,1.2,1.2,0,0,0,.268-1.791c-.053-.086-.11-.169-.165-.253q-3.818-5.8-7.634-11.609a12.7,12.7,0,0,1-.814-1.337,3.549,3.549,0,0,1,5.914-3.828,16.163,16.163,0,0,1,.961,1.384q8.27,12.565,16.528,25.137a25.336,25.336,0,0,1,1.575,2.712c2.976,6.071,2.62,12.72-2.722,18.183C102.227,906.725,101.227,907.54,100.274,908.4Z" transform="translate(-6.127)" fill="#603813"/><path d="M23.3,919.765l2.547,2.912c.734.655,1.452,1.328,2.2,1.962,4.365,3.68,9.34,5.485,15.08,4.741,6.786-.88,13.564-1.826,20.344-2.754a5.227,5.227,0,0,0,1.163-.306,4.219,4.219,0,0,0,2.452-5.948A4.565,4.565,0,0,0,62.424,918c-2.569.2-5.135.446-7.7.67-.165.015-.332.008-.635.013l.642-.561Q65.464,908.737,76.2,899.35A3.587,3.587,0,1,0,71.459,894q-6.469,5.682-12.956,11.343c-.076.066-.149.135-.231.195a1.192,1.192,0,0,1-1.581-1.784c.139-.144.3-.27.45-.4q8.208-7.18,16.42-14.356a3.538,3.538,0,0,0,1.33-3.314,9.4,9.4,0,0,0-.4-1.373l-.875-1c-1.994-1.209-3.655-.716-5.333.781-5.319,4.745-10.712,9.406-16.079,14.1-.683.6-1.367.616-1.859.061s-.4-1.243.276-1.844c.873-.777,1.755-1.542,2.635-2.309q6.124-5.339,12.251-10.675a3.615,3.615,0,0,0-.356-5.916,3.769,3.769,0,0,0-4.6.7q-8.234,7.24-16.5,14.448a1.176,1.176,0,0,1-1.766.015,1.2,1.2,0,0,1,.22-1.8c.073-.068.151-.134.227-.2q5.228-4.574,10.456-9.149a12.759,12.759,0,0,0,1.141-1.071,3.549,3.549,0,0,0-4.677-5.269,16.281,16.281,0,0,0-1.3,1.077q-11.324,9.9-22.639,19.812a25.132,25.132,0,0,0-2.241,2.194c-4.489,5.056-5.921,11.559-2.231,18.25C21.872,917.628,22.618,918.68,23.3,919.765Z" transform="translate(0 -3.19)" fill="#aa855f"/></g></g></svg>