<svg xmlns="http://www.w3.org/2000/svg" width="100" height="100" viewBox="0 0 100 100"><g transform="translate(-694 -2291)"><circle cx="50" cy="50" r="50" transform="translate(694 2291)" fill="#e1251b"/><g transform="translate(40.437 1587.437)"><path d="M663,743.6v-3.849c.048-.247.117-.492.141-.741a24.762,24.762,0,0,1,3.383-10.442,21.267,21.267,0,0,1,21.891-10.225c5.435.881,9.642,3.828,13.075,8.009.3.368.592.746.919,1.159.344-.435.626-.8.913-1.153,5.916-7.371,14.663-10.155,23.312-7.2,7.774,2.655,12.346,8.321,14.39,16.141.38,1.453.534,2.967.791,4.452V743.6a3.589,3.589,0,0,0-.122.514,27.9,27.9,0,0,1-5.169,13.476A61.8,61.8,0,0,1,726.375,768.8c-6.951,6.149-13.982,12.21-21.007,18.275a4.493,4.493,0,0,1-6.05-.1q-8-6.855-15.978-13.745a111.252,111.252,0,0,1-12.1-11.806,33.417,33.417,0,0,1-7.39-13.238C663.46,746.685,663.277,745.131,663,743.6Z" transform="translate(-0.728)" fill="#ff5100"/><path d="M757.9,776.419l-1.981,2.058c-.565.457-1.118.928-1.7,1.369a13.917,13.917,0,0,1-11.289,2.967c-4.975-.888-9.941-1.825-14.909-2.747a3.921,3.921,0,0,1-.847-.266,3.116,3.116,0,0,1-1.6-4.474,3.372,3.372,0,0,1,3.528-1.584c1.888.236,3.772.51,5.657.765.121.017.245.017.468.032l-.454-.437q-7.587-7.3-15.174-14.6a2.649,2.649,0,1,1,3.683-3.782q4.573,4.418,9.157,8.822c.054.052.106.106.163.152a.881.881,0,0,0,1.229-1.26c-.1-.111-.21-.21-.318-.313q-5.8-5.584-11.607-11.166a2.614,2.614,0,0,1-.865-2.491,7,7,0,0,1,.344-1l.681-.708c1.514-.821,2.721-.4,3.906.764,3.756,3.687,7.571,7.315,11.364,10.965.483.465.987.5,1.369.11s.338-.9-.14-1.371c-.616-.6-1.24-1.2-1.862-1.8q-4.329-4.153-8.661-8.3a2.67,2.67,0,0,1,.471-4.351,2.785,2.785,0,0,1,3.365.676q5.819,5.63,11.659,11.237a.869.869,0,0,0,1.3.073.882.882,0,0,0-.1-1.334c-.052-.054-.107-.1-.161-.156q-3.7-3.557-7.39-7.116a9.3,9.3,0,0,1-.8-.831,2.621,2.621,0,0,1,3.636-3.722,11.98,11.98,0,0,1,.917.841q8,7.7,16,15.41a18.523,18.523,0,0,1,1.576,1.7c3.133,3.887,3.96,8.734,1,13.54C759.035,774.892,758.448,775.643,757.9,776.419Z" transform="translate(-12.518 -5.095)" fill="#d8d298"/><path d="M663.2,777.175l2.022,2.017c.574.445,1.136.9,1.722,1.334a13.92,13.92,0,0,0,11.348,2.736c4.955-.989,9.9-2.027,14.849-3.052a3.941,3.941,0,0,0,.842-.284,3.115,3.115,0,0,0,1.507-4.506,3.37,3.37,0,0,0-3.56-1.512c-1.883.275-3.76.586-5.64.88-.121.019-.244.023-.467.042l.445-.445q7.437-7.455,14.873-14.909a2.649,2.649,0,1,0-3.76-3.706q-4.481,4.51-8.975,9.007c-.052.053-.1.108-.16.155a.88.88,0,0,1-1.255-1.234c.1-.114.207-.214.311-.32q5.686-5.7,11.376-11.4a2.613,2.613,0,0,0,.814-2.508,7,7,0,0,0-.365-.992l-.7-.693c-1.53-.791-2.729-.344-3.889.843-3.681,3.763-7.42,7.468-11.138,11.195-.474.474-.977.523-1.366.138s-.358-.9.11-1.372c.6-.616,1.216-1.224,1.826-1.833q4.243-4.242,8.488-8.48a2.669,2.669,0,0,0-.56-4.34,2.784,2.784,0,0,0-3.351.745q-5.7,5.747-11.426,11.473a.869.869,0,0,1-1.3.1.883.883,0,0,1,.072-1.336c.051-.054.1-.106.157-.158q3.622-3.633,7.244-7.266a9.389,9.389,0,0,0,.787-.847A2.62,2.62,0,0,0,680.374,743a11.7,11.7,0,0,0-.9.859q-7.845,7.863-15.683,15.733a18.73,18.73,0,0,0-1.542,1.728c-3.053,3.951-3.781,8.814-.727,13.558C662.035,775.671,662.638,776.41,663.2,777.175Z" transform="translate(0 -5.173)" fill="#d8d298"/></g></g></svg>