<svg xmlns="http://www.w3.org/2000/svg" width="100" height="100" viewBox="0 0 100 100"><g transform="translate(-694 -2291)"><circle cx="50" cy="50" r="50" transform="translate(694 2291)" fill="#e1251b"/><g transform="translate(349.609 1442.67)"><g transform="translate(352.391 863.037)"><path d="M367.047,929.553a55,55,0,0,1-4.076-4.075,14.546,14.546,0,0,1-3.235-9.185c-.037-2.157-.007-4.315-.007-6.6-.673,0-1.305.006-1.937,0a5.3,5.3,0,1,1-.025-10.6c3.587-.018,7.174,0,10.879,0v-1.018q0-13.718.005-27.436a7.485,7.485,0,0,1,14.961-.455c.017.447,0,.895,0,1.468H385.3c2.136,0,2.2.06,2.2,2.232v1.808c.634,0,1.238-.013,1.84,0,.817.024,1.173.371,1.184,1.192q.025,1.977,0,3.956a1.093,1.093,0,0,1-1.247,1.239q-6.522.016-13.043,0c-.821,0-1.172-.354-1.183-1.185-.019-1.374-.009-2.749,0-4.124a.971.971,0,0,1,1.1-1.081c.611,0,1.221,0,1.927,0,0-.956-.008-1.845,0-2.733.01-.979.332-1.3,1.318-1.306.7-.008,1.4,0,2.156,0a5.571,5.571,0,0,0-1.964-5.354,5.174,5.174,0,0,0-5.683-.744,5.113,5.113,0,0,0-3.215,4.829c-.066,3.9-.021,7.8-.021,11.7q0,8,0,15.99v1.021h1.115q29.493,0,58.986,0a5.3,5.3,0,1,1,.581,10.591c-.723.03-1.448,0-2.276,0,0,1.176.035,2.29-.008,3.4a45.061,45.061,0,0,1-.355,6.029,14.842,14.842,0,0,1-6.3,9.683c-.181.13-.365.258-.546.389a2.054,2.054,0,0,0-.179.241c.664.612,1.366,1.233,2.038,1.886.63.613.706,1.241.215,1.669-.608.529-1.127.265-1.611-.229-.688-.7-1.361-1.42-2.095-2.069a1.087,1.087,0,0,0-.912-.187,17.906,17.906,0,0,1-6.257,1.087q-18.6-.023-37.193,0a18.139,18.139,0,0,1-6.266-1.043,1.092,1.092,0,0,0-.915.214c-.772.692-1.484,1.45-2.211,2.191-.489.5-1.016.735-1.615.209-.469-.411-.395-1.033.175-1.61C365.736,930.834,366.457,930.136,367.047,929.553Z" transform="translate(-352.391 -863.037)" fill="#6fceea"/></g></g></g></svg>