<svg xmlns="http://www.w3.org/2000/svg" width="100" height="100" viewBox="0 0 100 100"><g transform="translate(-694 -2291)"><circle cx="50" cy="50" r="50" transform="translate(694 2291)" fill="#e1251b"/><g transform="translate(-998.111 2200.383)"><path d="M1777.034,101.311a1.465,1.465,0,0,0-1.575-.662,1.664,1.664,0,0,0-.968.686q-7.566,9.372-15.457,18.473c-7.1,8.144-14.263,16.234-22.322,23.474a6.022,6.022,0,0,0-1.953,5.021,31.01,31.01,0,0,0,1.674,8.5,23.43,23.43,0,0,0,6.026,9.608c4.031,3.781,8.938,5.492,14.341,5.99.463.043.619.146.613.64-.031,2.6-.021,5.208-.021,7.812a1.435,1.435,0,0,0,1.106,1.569,5.113,5.113,0,0,1,.743,0,1.269,1.269,0,0,0,1.021-1.022.767.767,0,0,1-.041-.336.367.367,0,0,0,.065.177,1.006,1.006,0,0,0,.059-.549c0-2.526.009-5.052-.008-7.578,0-.378.087-.493.483-.5a16.891,16.891,0,0,0,7.582-1.743,1.464,1.464,0,0,0,.719-2.008,1.489,1.489,0,0,0-2.008-.632c-.4.18-.787.379-1.2.526a14.9,14.9,0,0,1-5.867.89,41.183,41.183,0,0,1-5.4-.5c-7.474-1.382-12.593-5.588-15.279-12.722a.559.559,0,0,1,.12-.693,14.061,14.061,0,0,0,1.825-2.366,11.176,11.176,0,0,0,.962-10.84c-.133-.311.024-.422.189-.582,2.7-2.6,5.306-5.278,7.858-8.015,8.266-8.863,16.105-18.1,23.785-27.469q1.408-1.718,2.795-3.454A1.47,1.47,0,0,0,1777.034,101.311Zm-16.807,79.519q0-3.748,0-7.5c0-.043,0-.086,0-.129,0,2.457,0,5,0,7.539C1760.231,180.772,1760.229,180.8,1760.227,180.831Zm0-7.891V173a.569.569,0,0,0-.026-.123l-.006-.017A.135.135,0,0,1,1760.228,172.939Zm-.07-.09Zm-21.874-20.211a22.3,22.3,0,0,1-.562-5.112,3.207,3.207,0,0,1,1.064-2.175c.225-.216.462-.419.7-.627.432-.385.435-.386.587.2C1740.807,147.754,1739.982,150.231,1738.284,152.638Z" transform="translate(-13.075 -2)" fill="#6fcfeb"/><path d="M1733.62,180.275s-5.106,14.165-5.435,15.811c-.226,1.131-.823,6.588,5.435,6.588s5.283-5.717,4.941-7.082C1738.233,194.275,1733.62,180.275,1733.62,180.275Z" transform="translate(-11.512 -20.618)" fill="#6fcfeb"/></g></g></svg>