<svg xmlns="http://www.w3.org/2000/svg" width="100" height="100" viewBox="0 0 100 100"><g transform="translate(-694 -2291)"><circle cx="50" cy="50" r="50" transform="translate(694 2291)" fill="#e1251b"/><g transform="translate(682.199 1580.333)"><path d="M38.467,786.62c3.643-.959,6.685-3.094,9.888-4.93a18.486,18.486,0,0,1,8.2-2.75,15.872,15.872,0,0,1,3.091.2,14.389,14.389,0,0,0,12.987-4.183,15.845,15.845,0,0,1,8.956-4.359c1.9-.332,3.857-.35,5.767-.646,2.11-.326,4.2-.8,6.291-1.225a7.894,7.894,0,0,0,.79-.253c-.086.295-.131.484-.195.666-.744,2.128-1.415,4.285-2.252,6.376a27.661,27.661,0,0,1-10.772,12.691,37.8,37.8,0,0,1-27.413,6.242,23.043,23.043,0,0,1-9.018-3.321c-2.166-1.366-4.245-2.87-6.362-4.313Z" transform="translate(-4.318 -8.686)" fill="#6fceea"/><path d="M94.46,763.089a32.61,32.61,0,0,1-10.214,2.026,22.85,22.85,0,0,0-10,2.612,16.348,16.348,0,0,0-3.417,2.608,12.683,12.683,0,0,1-11.6,3.745,16.891,16.891,0,0,0-9.372,1.323A47.052,47.052,0,0,0,43,779.172a28.841,28.841,0,0,1-7.182,2.98c.1-.211.142-.328.2-.436q3.494-6.3,6.99-12.6a14,14,0,0,1,8.394-6.8,9.876,9.876,0,0,1,4.011-.328A14.059,14.059,0,0,0,66.65,758.4c3.268-2.9,7.079-3.44,11.19-2.676a12.807,12.807,0,0,1,2.945.969c4.451,2.037,8.879,4.124,13.314,6.195C94.194,762.931,94.284,762.989,94.46,763.089Z" transform="translate(-3.744 -5.811)" fill="#6fceea"/><path d="M100.117,748.045s15.592-10.582,10.805-16.583c-4.77-5.98-10.805.789-10.805.789h-.044s-6.036-6.77-10.805-.789c-4.788,6,10.805,16.583,10.805,16.583Z" transform="translate(-15.302)" fill="#6fceea"/><path d="M70.13,747.593s9.35-6.345,6.479-9.944-6.479.473-6.479.473H70.1s-3.618-4.059-6.479-.473,6.479,9.944,6.479,9.944Z" transform="translate(-9.741 -1.578)" fill="#6fceea"/><path d="M45.821,819.65s9.35-6.345,6.479-9.944-6.479.474-6.479.474h-.027s-3.619-4.059-6.479-.474,6.479,9.944,6.479,9.944Z" transform="translate(-4.393 -17.431)" fill="#6fceea"/><path d="M107.065,804.675s9.976-6.77,6.913-10.61-6.913.505-6.913.505h-.028s-3.862-4.331-6.914-.505,6.914,10.61,6.914,10.61Z" transform="translate(-17.763 -13.969)" fill="#6fceea"/><path d="M23.818,784.985s6.651-4.513,4.609-7.073-4.609.337-4.609.337H23.8s-2.575-2.888-4.609-.337,4.609,7.073,4.609,7.073Z" transform="translate(0 -10.531)" fill="#6fceea"/></g></g></svg>