<svg xmlns="http://www.w3.org/2000/svg" width="100" height="100" viewBox="0 0 100 100"><g transform="translate(-694 -2291)"><circle cx="50" cy="50" r="50" transform="translate(694 2291)" fill="#e1251b"/><g transform="translate(-676.469 2185.083)"><rect width="20.705" height="5.104" rx="2.552" transform="translate(1409.417 111.646)" fill="#9164cb"/><path d="M0,0H16.92a0,0,0,0,1,0,0V31.674a8.46,8.46,0,0,1-8.46,8.46h0A8.46,8.46,0,0,1,0,31.674V0A0,0,0,0,1,0,0Z" transform="translate(1411.31 129.576)" fill="#9164cb"/><rect width="11.045" height="7.654" transform="translate(1414.365 116.749)" fill="#9164cb"/><rect width="23.97" height="5.173" rx="2.586" transform="translate(1408.02 124.403)" fill="#9164cb"/><path d="M0,0H13.578a.052.052,0,0,1,.052.052v0A3.148,3.148,0,0,1,10.482,3.2H3.148A3.148,3.148,0,0,1,0,.052V0A0,0,0,0,1,0,0Z" transform="translate(1413.096 169.711)" fill="#9164cb"/><path d="M0,0H8.577a.071.071,0,0,1,.071.071V2.306A4.324,4.324,0,0,1,4.324,6.63h0A4.324,4.324,0,0,1,0,2.306V0A0,0,0,0,1,0,0Z" transform="translate(1415.621 172.744)" fill="#9164cb"/><path d="M1419.379,188.138l.423,18.412s.212,1.9,1.41,1.762,1.128-1.621,1.128-1.621l.635-18.552Z" transform="translate(-1.301 -8.764)" fill="#9164cb"/><g transform="translate(1420.905 131.738)"><path d="M1429.622,136.594H1423.7a1.131,1.131,0,0,1-1.128-1.128h0a1.131,1.131,0,0,1,1.128-1.128h5.922Z" transform="translate(-1422.572 -134.338)" fill="#5e4487"/><path d="M1429.622,140.659H1423.7a1.132,1.132,0,0,1-1.128-1.128h0a1.131,1.131,0,0,1,1.128-1.128h5.922Z" transform="translate(-1422.572 -134.804)" fill="#5e4487"/><path d="M1429.622,144.723H1423.7a1.131,1.131,0,0,1-1.128-1.127h0a1.131,1.131,0,0,1,1.128-1.127h5.922Z" transform="translate(-1422.572 -135.269)" fill="#5e4487"/><path d="M1429.622,148.788H1423.7a1.131,1.131,0,0,1-1.128-1.128h0a1.132,1.132,0,0,1,1.128-1.128h5.922Z" transform="translate(-1422.572 -135.735)" fill="#5e4487"/><path d="M1429.622,152.853H1423.7a1.131,1.131,0,0,1-1.128-1.128h0a1.131,1.131,0,0,1,1.128-1.128h5.922Z" transform="translate(-1422.572 -136.201)" fill="#5e4487"/><path d="M1429.622,156.918H1423.7a1.131,1.131,0,0,1-1.128-1.128h0a1.131,1.131,0,0,1,1.128-1.128h5.922Z" transform="translate(-1422.572 -136.666)" fill="#5e4487"/><path d="M1429.622,160.983H1423.7a1.132,1.132,0,0,1-1.128-1.128h0a1.131,1.131,0,0,1,1.128-1.128h5.922Z" transform="translate(-1422.572 -137.132)" fill="#5e4487"/><path d="M1429.622,165.047H1423.7a1.131,1.131,0,0,1-1.128-1.127h0a1.131,1.131,0,0,1,1.128-1.128h5.922Z" transform="translate(-1422.572 -137.598)" fill="#5e4487"/><path d="M1429.622,169.112H1423.7a1.131,1.131,0,0,1-1.128-1.128h0a1.132,1.132,0,0,1,1.128-1.128h5.922Z" transform="translate(-1422.572 -138.064)" fill="#5e4487"/></g><g transform="translate(1418.982 191.222)"><line x1="2.339" y1="2.729" transform="translate(2.339 1.17)" fill="none" stroke="#7ac943" stroke-linecap="round" stroke-miterlimit="10" stroke-width="2"/><line x1="2.729" y2="1.949" transform="translate(1.559 5.068)" fill="none" stroke="#7ac943" stroke-linecap="round" stroke-miterlimit="10" stroke-width="2"/><line y2="2.729" transform="translate(5.068 5.068)" fill="none" stroke="#7ac943" stroke-linecap="round" stroke-miterlimit="10" stroke-width="2"/><line y1="2.729" x2="0.78" transform="translate(5.458 1.559)" fill="none" stroke="#7ac943" stroke-linecap="round" stroke-miterlimit="10" stroke-width="2"/><line x2="2.729" y2="1.17" transform="translate(5.848 4.678)" fill="none" stroke="#7ac943" stroke-linecap="round" stroke-miterlimit="10" stroke-width="2"/><circle cx="1.949" cy="1.949" r="1.949" transform="translate(3.119 2.339)" fill="#2baa02"/><circle cx="0.585" cy="0.585" r="0.585" transform="translate(1.559 0.39)" fill="#2baa02"/><circle cx="0.975" cy="0.975" r="0.975" transform="translate(5.458)" fill="#2baa02"/><circle cx="0.975" cy="0.975" r="0.975" transform="translate(0 6.433)" fill="#2baa02"/><circle cx="0.78" cy="0.78" r="0.78" transform="translate(4.288 7.407)" fill="#2baa02"/><circle cx="0.585" cy="0.585" r="0.585" transform="translate(8.382 5.458)" fill="#2baa02"/></g><g transform="translate(1409.141 179.065)"><line x1="2.339" y1="2.729" transform="translate(2.339 1.17)" fill="none" stroke="#7ac943" stroke-linecap="round" stroke-miterlimit="10" stroke-width="2"/><line x1="2.729" y2="1.949" transform="translate(1.559 5.068)" fill="none" stroke="#7ac943" stroke-linecap="round" stroke-miterlimit="10" stroke-width="2"/><line y2="2.729" transform="translate(5.068 5.068)" fill="none" stroke="#7ac943" stroke-linecap="round" stroke-miterlimit="10" stroke-width="2"/><line y1="2.729" x2="0.78" transform="translate(5.458 1.559)" fill="none" stroke="#7ac943" stroke-linecap="round" stroke-miterlimit="10" stroke-width="2"/><line x2="2.729" y2="1.17" transform="translate(5.848 4.678)" fill="none" stroke="#7ac943" stroke-linecap="round" stroke-miterlimit="10" stroke-width="2"/><circle cx="1.949" cy="1.949" r="1.949" transform="translate(3.119 2.339)" fill="#2baa02"/><circle cx="0.585" cy="0.585" r="0.585" transform="translate(1.559 0.39)" fill="#2baa02"/><circle cx="0.975" cy="0.975" r="0.975" transform="translate(5.458)" fill="#2baa02"/><circle cx="0.975" cy="0.975" r="0.975" transform="translate(0 6.433)" fill="#2baa02"/><circle cx="0.78" cy="0.78" r="0.78" transform="translate(4.288 7.407)" fill="#2baa02"/><circle cx="0.585" cy="0.585" r="0.585" transform="translate(8.382 5.458)" fill="#2baa02"/></g></g></g></svg>