<svg xmlns="http://www.w3.org/2000/svg" width="100" height="100" viewBox="0 0 100 100"><g transform="translate(-694 -2291)"><circle cx="50" cy="50" r="50" transform="translate(694 2291)" fill="#e1251b"/><g transform="translate(530.634 1458.561)"><g transform="translate(182.611 844.791)"><path d="M182.8,898.224h3.247l56.825.017c2.267,0,2.267,0,2.236,2.3-.154,11.424-8.571,19.941-19.95,20.116-4.693.072-9.387.005-14.08.023-2.652.01-3.51.874-3.525,3.534-.017,2.958,0,5.916,0,9.076H182.8Z" transform="translate(-182.659 -857.99)" fill="#f2ce00"/><path d="M207.372,882.334H202.7V849.883H187.583V882.31h-4.966v-1.562q0-15.215,0-30.429c0-3.485,2.025-5.5,5.538-5.513,4.693-.014,9.385-.026,14.078.005,3.165.021,5.252,1.949,5.267,5.081.049,10.535.006,21.07-.006,31.6A7.22,7.22,0,0,1,207.372,882.334Z" transform="translate(-182.611 -844.791)" fill="#f2ce00"/><path d="M254.047,888.286v4.77H219.286v-4.77Z" transform="translate(-191.671 -855.535)" fill="#f2ce00"/></g></g></g></svg>