<svg xmlns="http://www.w3.org/2000/svg" width="100" height="100" viewBox="0 0 100 100"><g transform="translate(-694 -2291)"><circle cx="50" cy="50" r="50" transform="translate(694 2291)" fill="#e1251b"/><g transform="translate(-830.884 2186.761)"><g transform="translate(1560.314 116)"><path d="M1580.1,215.056h13.406c1.615-1.13,0-3.069,0-3.069H1566.7s-1.615,1.939,0,3.069Z" transform="translate(-1565.979 -138.579)" fill="#6fceea"/><path d="M1582.985,119.149c.4.06,1.436.324,1.436.324,6.945,1.777,8.076,9.69,8.076,9.69v60.245h-23.252V129.163s1.13-7.914,8.076-9.69c0,0,1.035-.263,1.436-.324h.018c-.121-1.7.363-3.028,2.059-3.149h.075c1.7.121,2.18,1.454,2.059,3.149Z" transform="translate(-1566.748 -116)" fill="#6fceea"/></g><path d="M1605.3,181.46a5.881,5.881,0,0,1-8.406,8.226l-22.458-22.968-22.458,22.968a5.881,5.881,0,0,1-8.406-8.226l22.638-23.156-22.638-23.156a5.881,5.881,0,0,1,8.406-8.226l22.458,22.968,22.458-22.968a5.881,5.881,0,0,1,8.406,8.226L1582.663,158.3Z" transform="translate(0 -2.154)" fill="#9164cc"/></g></g></svg>