<svg xmlns="http://www.w3.org/2000/svg" width="100" height="100" viewBox="0 0 100 100"><g transform="translate(-694 -2291)"><circle cx="50" cy="50" r="50" transform="translate(694 2291)" fill="#e1251b"/><path d="M590.331,862.889h1.406a3.265,3.265,0,0,0,.35.227,2.644,2.644,0,0,1,.037,4.812c-2.766,1.394-5.533,2.786-8.316,4.146a1.06,1.06,0,0,0-.7,1.123c.03,4.331,0,8.663.026,12.994a3.391,3.391,0,0,1-1.06,2.586c-1.712,1.682-3.4,3.389-5.092,5.089-.172.173-.325.365-.59.664H577.5q12.028,0,24.056,0a7.921,7.921,0,0,1,7.7,5.424c.155.469.271.951.4,1.427v2.109a2,2,0,0,0-.136.322,7.882,7.882,0,0,1-8.156,6.532c-6.882,0-13.765.029-20.646-.023a17.071,17.071,0,0,1-3.98-.543,12.4,12.4,0,0,1-5.39-3.1l-.782,1.051a7.788,7.788,0,0,1,1.938,4.379,26.044,26.044,0,0,1,.047,3.247c-.019.623.137.9.8,1.059,5.994,1.463,11.976,2.974,17.959,4.48a2.7,2.7,0,0,1,2.344,3.012c.006,2.782-.021,5.565.025,8.346a2.1,2.1,0,0,0,.518,1.29c3.008,3.16,6.061,6.279,9.087,9.422a2.647,2.647,0,1,1-3.8,3.655c-3.367-3.466-6.717-6.949-10.087-10.411a3.363,3.363,0,0,1-1.024-2.516c.03-2.459.023-4.92-.008-7.379,0-.277-.2-.746-.4-.8-3.048-.806-6.111-1.559-9.169-2.324a41.763,41.763,0,0,0,3.255,3.456,3.34,3.34,0,0,1,1.062,2.587c-.031,2.723.011,5.448-.025,8.171a1.97,1.97,0,0,0,.631,1.537q4.518,4.613,8.991,9.27a2.635,2.635,0,0,1,.143,3.905,8.28,8.28,0,0,1-1.136.772h-1.406a8.327,8.327,0,0,1-1.262-.894q-5.184-5.309-10.333-10.654a3.09,3.09,0,0,1-.892-2.3c.024-1.786.012-3.572.005-5.358-.005-1.256.312-2.654-.135-3.73s-1.675-1.827-2.545-2.736c-.795-.83-1.568-1.68-2.351-2.521l-.242.181c0,.93-.048,1.862.012,2.787a6.251,6.251,0,0,1-.789,3.356c-1.556,3.013-3.058,6.054-4.555,9.1a2.715,2.715,0,0,1-5.152.007c-1.548-3.148-3.165-6.263-4.668-9.432a8.256,8.256,0,0,1-.642-2.67c-.107-1.052-.025-2.122-.025-3.425-1.694,1.707-3.185,3.234-4.708,4.727a1.731,1.731,0,0,0-.58,1.373c.03,2.664-.022,5.329.029,7.992a3.877,3.877,0,0,1-1.2,2.979c-3.079,3.131-6.106,6.313-9.181,9.447A27.192,27.192,0,0,1,539,952.889H537.6c-2.392-1.448-2.589-3.023-.626-5.053,2.891-2.989,5.8-5.963,8.66-8.979a2.22,2.22,0,0,0,.555-1.361q.078-4.039.01-8.082a3.617,3.617,0,0,1,1.188-2.89c1.1-1.035,2.151-2.13,3.223-3.2-3.145.64-6.209,1.388-9.259,2.19-.194.051-.39.52-.394.8-.03,2.489.04,4.981-.053,7.467a3.543,3.543,0,0,1-.773,2.141c-3.445,3.674-6.968,7.274-10.483,10.882a2.48,2.48,0,0,1-2.493.726,2.622,2.622,0,0,1-1.174-4.5c3.041-3.17,6.118-6.306,9.146-9.487a2.089,2.089,0,0,0,.517-1.29c.046-2.752.021-5.505.024-8.258a2.742,2.742,0,0,1,2.428-3.118c5.93-1.477,11.855-2.973,17.791-4.427.706-.172.928-.463.894-1.181a24.226,24.226,0,0,1,.068-3.332,7.927,7.927,0,0,1,1.905-4.236l-.775-.991-.7.578a12.461,12.461,0,0,1-7.965,3.036c-7.292.058-14.584.045-21.876.011a7.858,7.858,0,0,1-7.361-5.412c-.155-.47-.27-.952-.4-1.429v-2.109a1.37,1.37,0,0,0,.112-.236c1.21-4.549,3.9-6.619,8.611-6.619h24.643c-2.041-2.038-3.893-3.908-5.77-5.752a3.385,3.385,0,0,1-1.063-2.584c.025-4.244-.012-8.489.03-12.732a1.4,1.4,0,0,0-.933-1.515c-2.692-1.28-5.342-2.647-8.01-3.978a2.616,2.616,0,0,1-1.608-2.418,2.555,2.555,0,0,1,1.647-2.471,1.835,1.835,0,0,0,.27-.191H539c3.545,1.784,7.083,3.584,10.641,5.344a3.019,3.019,0,0,1,1.85,3q-.048,6.763.011,13.528a2.045,2.045,0,0,0,.526,1.278c1.891,1.958,3.833,3.868,5.761,5.791.179.178.38.333.571.5l.275-.14a3.369,3.369,0,0,0-.308-.832,7.87,7.87,0,0,1,3.009-11.88,1.018,1.018,0,0,0,.706-1.1c-.027-3.982.038-7.965-.039-11.946a3.351,3.351,0,0,1,1.958-3.54h1.406a3.314,3.314,0,0,1,1.956,3.541c-.09,2.4-.023,4.8-.023,7.2v5.515a7.878,7.878,0,0,1,4.627,4.385,7.72,7.72,0,0,1-.935,7.815c-.212.3-.671.625.075.952,2.075-2.074,4.179-4.145,6.234-6.264a2.038,2.038,0,0,0,.524-1.279c.038-4.451.057-8.9.005-13.352a3.21,3.21,0,0,1,2.012-3.25C583.362,866.443,586.838,864.649,590.331,862.889ZM573.093,899.8a4.709,4.709,0,0,0,.17.562,7.779,7.779,0,0,0,5.574,4.525,7.581,7.581,0,0,0,1.653.18q10.539.018,21.079.005a2.633,2.633,0,0,0,.728-5.2,5.414,5.414,0,0,0-1.134-.066q-13.527,0-27.052,0Zm-16.784,0H536.717c-2.987,0-5.973.005-8.959,0a2.64,2.64,0,1,0-.023,5.271q10.582.023,21.167,0a7.164,7.164,0,0,0,1.652-.189A7.944,7.944,0,0,0,556.309,899.8Zm8.359,33.652c.853-1.708,1.615-3.188,2.329-4.69a3.037,3.037,0,0,0,.294-1.247c.02-4.711.015-9.421.012-14.131,0-1.839-1.074-3.052-2.668-3.033-1.56.018-2.6,1.217-2.6,3.008q0,7.065,0,14.131a1.875,1.875,0,0,0,.062.777C562.9,929.942,563.742,931.6,564.668,933.454Zm2.632-46.867a2.634,2.634,0,1,0-2.579,2.667A2.664,2.664,0,0,0,567.3,886.587Z" transform="translate(179.333 1433.111)" fill="#6fceea"/></g></svg>