<svg xmlns="http://www.w3.org/2000/svg" width="242.168" height="49" viewBox="0 0 242.168 49"><g transform="translate(43.168)"><text transform="translate(0 36)" font-size="36" font-family="Nunito-Black, Nunito" font-weight="800" letter-spacing="0.1em"><tspan x="0" y="0">MEET HIV</tspan></text></g><g transform="translate(0 7.118)"><path d="M66.736,70.628l-5.445-8.421-5.444,8.421c-.786,1.215-1.636,2.45-2.526,3.671a12.473,12.473,0,0,0-2.309,7.871,12.215,12.215,0,0,0,3.025,7.63,9.538,9.538,0,0,0,14.51,0,12.208,12.208,0,0,0,3.024-7.63A12.459,12.459,0,0,0,69.262,74.3C68.372,73.078,67.522,71.843,66.736,70.628Z" transform="translate(-51 -62.207)" fill="#fc3535"/><path d="M80.736,70.628l-5.445-8.421-5.444,8.421c-.786,1.215-1.636,2.45-2.526,3.671a12.473,12.473,0,0,0-2.309,7.871,12.215,12.215,0,0,0,3.025,7.63,9.538,9.538,0,0,0,14.51,0,12.208,12.208,0,0,0,3.024-7.63A12.459,12.459,0,0,0,83.262,74.3C82.372,73.078,81.522,71.843,80.736,70.628Z" transform="translate(-51 -62.207)" fill="#6cf" style="mix-blend-mode:multiply;isolation:isolate"/></g></svg>