<svg xmlns="http://www.w3.org/2000/svg" width="174" height="174" viewBox="0 0 174 174"><g transform="translate(-704 -2284)"><path d="M87,0A87,87,0,1,1,0,87,87,87,0,0,1,87,0Z" transform="translate(704 2284)" fill="#f2cd00"/><g transform="translate(-828.708 1699.667)"><path d="M1661.958,720.333h-81.25v-100h66.068l15.182,12.964Zm-78.32-2.929h75.391V634.648l-13.334-11.385h-62.057Z" fill="#6fceea"/><path d="M1661.958,720.333h-81.25v-100h66.068l15.182,12.964Zm-78.32-2.929h75.391V634.648l-13.334-11.385h-62.057Z" fill="none" stroke="#6fceea" stroke-miterlimit="10" stroke-width="4"/><path d="M1660.4,635.47h-13.867l-1.465-1.465V621.9h2.93V632.54h12.4Z" fill="#6fceea"/><path d="M1660.4,635.47h-13.867l-1.465-1.465V621.9h2.93V632.54h12.4Z" fill="none" stroke="#6fceea" stroke-miterlimit="10" stroke-width="3"/><path d="M1646.529,658.226H1593.99c-.809,0-1.465-1.4-1.465-3.127s.656-3.127,1.465-3.127h52.539c.809,0,1.464,1.4,1.464,3.127S1647.338,658.226,1646.529,658.226Z" fill="#6fceea"/><path d="M1646.529,676.976H1593.99c-.809,0-1.465-1.4-1.465-3.127s.656-3.128,1.465-3.128h52.539c.809,0,1.464,1.4,1.464,3.128S1647.338,676.976,1646.529,676.976Z" fill="#6fceea"/><path d="M1646.529,695.726H1593.99c-.809,0-1.465-1.4-1.465-3.127s.656-3.128,1.465-3.128h52.539c.809,0,1.464,1.4,1.464,3.128S1647.338,695.726,1646.529,695.726Z" fill="#6fceea"/></g></g></svg>