<svg xmlns="http://www.w3.org/2000/svg" width="174" height="174" viewBox="0 0 174 174"><g transform="translate(-231 -2512)"><path d="M87,0A87,87,0,1,1,0,87,87,87,0,0,1,87,0Z" transform="translate(231 2512)" fill="#f2cd00"/><g transform="translate(-1312.753 2079.247)"><path d="M1643.571,532.571l-22.285,22.284a18.538,18.538,0,0,1-26.141,0h0a18.538,18.538,0,0,1,0-26.141l22.284-22.285Z" fill="#6fceea"/><path d="M1617.429,506.429l22.285-22.284a18.538,18.538,0,0,1,26.141,0h0a18.539,18.539,0,0,1,0,26.141l-22.284,22.285Z" fill="#e1251a"/></g></g></svg>