<svg xmlns="http://www.w3.org/2000/svg" width="174" height="174" viewBox="0 0 174 174"><g transform="translate(-704 -2284)"><path d="M87,0A87,87,0,1,1,0,87,87,87,0,0,1,87,0Z" transform="translate(704 2284)" fill="#f2cd00"/><g transform="translate(-675.832 1702.98)"><rect width="5.873" height="8.791" transform="translate(1457.559 669.883) rotate(26.109)" fill="#4c7190"/><rect width="13.423" height="43.007" rx="4.808" transform="translate(1450.758 674.662) rotate(26.109)" fill="#e1251a"/><path d="M1472.6,617.02a29.139,29.139,0,1,0,29.139,29.139A29.139,29.139,0,0,0,1472.6,617.02Zm-.068,52.742a23.779,23.779,0,1,1,23.778-23.779A23.779,23.779,0,0,1,1472.534,669.762Z" fill="#122f3b"/><circle cx="23.779" cy="23.779" r="23.779" transform="translate(1448.755 622.204)" fill="#e8cab9" opacity="0.3"/></g></g></svg>