<svg xmlns="http://www.w3.org/2000/svg" width="174" height="174" viewBox="0 0 174 174"><g transform="translate(-704 -2284)"><path d="M87,0A87,87,0,1,1,0,87,87,87,0,0,1,87,0Z" transform="translate(704 2284)" fill="#f2cd00"/><g transform="translate(-676.396 1863.889)"><path d="M1468.1,557.111h17.53c2.111-1.478,0-4.013,0-4.013h-35.059s-2.111,2.535,0,4.013Z" fill="#6fceea"/><path d="M1470.652,461.229c.524.08,1.877.423,1.877.423,9.082,2.323,10.56,12.671,10.56,12.671V553.1h-30.4V474.323s1.479-10.348,10.56-12.671c0,0,1.353-.343,1.878-.423h.023c-.159-2.217.475-3.959,2.692-4.118h.1c2.218.159,2.851,1.9,2.693,4.118Z" fill="#6fceea"/><path d="M1442.4,516.722l21.127,13.312,37.081-45.273" fill="none" stroke="#39b54a" stroke-linecap="round" stroke-miterlimit="10" stroke-width="14"/></g></g></svg>