<svg xmlns="http://www.w3.org/2000/svg" width="174" height="174" viewBox="0 0 174 174"><g transform="translate(-704 -2284)"><path d="M87,0A87,87,0,1,1,0,87,87,87,0,0,1,87,0Z" transform="translate(704 2284)" fill="#f2cd00"/><g transform="translate(-978 1856.042)"><rect width="25.888" height="6.381" rx="3.191" transform="translate(1755.762 459.958)" fill="#9164cb"/><path d="M0,0H21.156a0,0,0,0,1,0,0V39.6A10.578,10.578,0,0,1,10.578,50.182h0A10.578,10.578,0,0,1,0,39.6V0A0,0,0,0,1,0,0Z" transform="translate(1758.128 482.377)" fill="#9164cb"/><rect width="13.81" height="9.57" transform="translate(1761.948 466.339)" fill="#9164cb"/><rect width="29.971" height="6.468" rx="3.234" transform="translate(1754.015 475.909)" fill="#9164cb"/><path d="M0,0H16.978a.064.064,0,0,1,.064.064v0A3.936,3.936,0,0,1,13.106,4H3.936A3.936,3.936,0,0,1,0,.064V0A0,0,0,0,1,0,0Z" transform="translate(1760.361 532.559)" fill="#9164cb"/><path d="M0,0H10.724a.089.089,0,0,1,.089.089v2.8A5.406,5.406,0,0,1,5.406,8.29h0A5.406,5.406,0,0,1,0,2.884V0A0,0,0,0,1,0,0Z" transform="translate(1763.519 536.352)" fill="#9164cb"/><path d="M1766.591,544.642l.528,23.02s.265,2.38,1.763,2.2,1.411-2.028,1.411-2.028l.793-23.2Z" fill="#9164cb"/><path d="M1778.94,487.9h-7.4a1.415,1.415,0,0,1-1.41-1.41h0a1.415,1.415,0,0,1,1.41-1.411h7.4Z" fill="#5e4487"/><path d="M1778.94,492.4h-7.4a1.415,1.415,0,0,1-1.41-1.41h0a1.415,1.415,0,0,1,1.41-1.411h7.4Z" fill="#5e4487"/><path d="M1778.94,496.9h-7.4a1.414,1.414,0,0,1-1.41-1.41h0a1.415,1.415,0,0,1,1.41-1.411h7.4Z" fill="#5e4487"/><path d="M1778.94,501.4h-7.4a1.414,1.414,0,0,1-1.41-1.41h0a1.414,1.414,0,0,1,1.41-1.41h7.4Z" fill="#5e4487"/><path d="M1778.94,505.9h-7.4a1.414,1.414,0,0,1-1.41-1.41h0a1.414,1.414,0,0,1,1.41-1.41h7.4Z" fill="#5e4487"/><path d="M1778.94,510.4h-7.4a1.415,1.415,0,0,1-1.41-1.411h0a1.414,1.414,0,0,1,1.41-1.41h7.4Z" fill="#5e4487"/><path d="M1778.94,514.9h-7.4a1.415,1.415,0,0,1-1.41-1.411h0a1.415,1.415,0,0,1,1.41-1.41h7.4Z" fill="#5e4487"/><path d="M1778.94,519.4h-7.4a1.415,1.415,0,0,1-1.41-1.411h0a1.415,1.415,0,0,1,1.41-1.41h7.4Z" fill="#5e4487"/><path d="M1778.94,523.9h-7.4a1.415,1.415,0,0,1-1.41-1.411h0a1.415,1.415,0,0,1,1.41-1.41h7.4Z" fill="#5e4487"/><path d="M1786.913,523.7a1.378,1.378,0,0,1-1.144.545,14.967,14.967,0,0,0-7.846,2.52,12.575,12.575,0,0,0-5.339,8.67c-.195,1.132-.22,2.293-.321,3.44-.006.066,0,.132,0,.2a.873.873,0,0,1-.829.928c-.46,0-.778-.379-.823-.938-.1-1.2-.123-2.407-.316-3.589a12.8,12.8,0,0,0-10.925-10.971c-.81-.139-1.634-.2-2.454-.27-.662-.055-1.006-.314-1.014-.835s.38-.846,1.037-.874a14.829,14.829,0,0,0,8.311-2.768,12.441,12.441,0,0,0,4.926-8.171c.234-1.29.273-2.617.389-3.929.048-.54.339-.875.806-.878a.813.813,0,0,1,.814.868c.007.148,0,.3.006.445a18.876,18.876,0,0,0,.828,5.3c1.565,4.793,4.953,7.561,9.759,8.709a20.359,20.359,0,0,0,2.93.4,1.331,1.331,0,0,1,1.208.7Zm-15.541-10a14.432,14.432,0,0,1-9.775,9.651,14.432,14.432,0,0,1,9.777,9.653,14.432,14.432,0,0,1,9.775-9.654A14.435,14.435,0,0,1,1771.372,513.7Z" fill="#f2ce00"/><path d="M1768,553.156a.918.918,0,0,1,.777-.378,5.223,5.223,0,0,0,4.365-2.446,5.817,5.817,0,0,0,.781-2.643c.016-.21.013-.423.027-.633.03-.426.273-.687.616-.668s.522.282.561.688a12.52,12.52,0,0,0,.245,1.881,4.98,4.98,0,0,0,4.455,3.778c.21.023.421.041.632.058a.574.574,0,0,1,.6.593c0,.361-.239.568-.629.619a10.624,10.624,0,0,0-1.694.287,4.835,4.835,0,0,0-3.543,4.1c-.079.449-.092.91-.127,1.366-.03.4-.163.592-.447.6a.6.6,0,0,1-.665-.582c-.061-.548-.068-1.105-.174-1.643a4.978,4.978,0,0,0-4.59-4.137,3.024,3.024,0,0,0-.421-.037.831.831,0,0,1-.774-.382Zm6.475-2.88a6.159,6.159,0,0,1-3.2,3.144,6.27,6.27,0,0,1,3.218,3.167,6.193,6.193,0,0,1,3.191-3.168A6.34,6.34,0,0,1,1774.475,550.276Z" fill="#f2ce00"/><path d="M1766.314,543.453c0,.432-.276.667-.777.735a12.732,12.732,0,0,0-1.943.334,5.664,5.664,0,0,0-4.161,4.841c-.086.5-.1,1.012-.142,1.52-.036.477-.24.748-.592.752a.729.729,0,0,1-.723-.746,17.845,17.845,0,0,0-.25-2.127,5.912,5.912,0,0,0-5.716-4.63c-.1-.007-.193,0-.289-.009a.712.712,0,0,1-.72-.656.692.692,0,0,1,.661-.709,15.851,15.851,0,0,0,2.063-.364,5.681,5.681,0,0,0,4.13-4.917c.076-.474.081-.959.118-1.439.041-.514.3-.794.722-.776.4.018.644.3.651.8a8.017,8.017,0,0,0,.591,3.1,5.8,5.8,0,0,0,4.558,3.47c.39.076.794.079,1.188.134A.663.663,0,0,1,1766.314,543.453Zm-7.764,3.568a18.8,18.8,0,0,1,1.608-2.065,19.171,19.171,0,0,1,2.09-1.587,7.057,7.057,0,0,1-3.642-3.646,7.242,7.242,0,0,1-3.765,3.719A7.1,7.1,0,0,1,1758.55,547.021Z" fill="#f2ce00"/></g></g></svg>