<svg xmlns="http://www.w3.org/2000/svg" width="100" height="100" viewBox="0 0 100 100"><g transform="translate(-694 -2291)"><circle cx="50" cy="50" r="50" transform="translate(694 2291)" fill="#ff5100"/><g transform="translate(662.167 2156.647)"><path d="M80.488,150a7.094,7.094,0,0,0-7.086,7.086V199.68l-.35.246a15.435,15.435,0,1,0,17-.483l-.389-.242V157.087A7.094,7.094,0,0,0,82.576,150Z" fill="#e1251a"/><path d="M81.917,229.647a17.083,17.083,0,0,1-10.162-30.816V147.087a8.744,8.744,0,0,1,8.733-8.734h2.088a8.744,8.744,0,0,1,8.734,8.734v51.206a17.084,17.084,0,0,1-9.393,31.354ZM80.488,140a7.094,7.094,0,0,0-7.086,7.086V199.68l-.35.246a15.435,15.435,0,1,0,17-.483l-.389-.242V147.087A7.094,7.094,0,0,0,82.576,140Z" fill="#6fceea"/><path d="M81.917,229.647a17.083,17.083,0,0,1-10.162-30.816V147.087a8.744,8.744,0,0,1,8.733-8.734h2.088a8.744,8.744,0,0,1,8.734,8.734v51.206a17.084,17.084,0,0,1-9.393,31.354ZM80.488,140a7.094,7.094,0,0,0-7.086,7.086V199.68l-.35.246a15.435,15.435,0,1,0,17-.483l-.389-.242V147.087A7.094,7.094,0,0,0,82.576,140Z" fill="none" stroke="#6fceea" stroke-width="2.5"/><path d="M80.214,191.542H72.688c-.455,0-.824-.671-.824-1.5s.369-1.5.824-1.5h7.526c.455,0,.824.672.824,1.5S80.669,191.542,80.214,191.542Z" fill="#6fceea"/><path d="M80.214,184.182H72.688c-.455,0-.824-.672-.824-1.5s.369-1.5.824-1.5h7.526c.455,0,.824.671.824,1.5S80.669,184.182,80.214,184.182Z" fill="#6fceea"/><path d="M80.214,176.821H72.688c-.455,0-.824-.672-.824-1.5s.369-1.5.824-1.5h7.526c.455,0,.824.672.824,1.5S80.669,176.821,80.214,176.821Z" fill="#6fceea"/></g></g></svg>