<svg xmlns="http://www.w3.org/2000/svg" width="100" height="100" viewBox="0 0 100 100"><g transform="translate(-694 -2291)"><circle cx="50" cy="50" r="50" transform="translate(694 2291)" fill="#ff5100"/><g transform="translate(516.306 2002.955)"><path d="M226.238,357.944a49.305,49.305,0,0,1-25.125-7.365,34.937,34.937,0,0,1-9.361-8.676q-3.575-4.734-7.121-9.488c-.814-1.088-.762-1.633.238-2.566,5.013-4.679,10-9.386,15.051-14.024a20.363,20.363,0,0,1,16.961-5.51,15.871,15.871,0,0,1,4.177,1.262,15.9,15.9,0,0,0,13.271-.032c5.178-2.3,10.283-1.7,15.33.414a19.766,19.766,0,0,1,5.825,3.873q7.522,7.016,15.042,14.033c.931.869,1.039,1.46.366,2.359-2.688,3.586-5.318,7.219-8.107,10.725-4.98,6.26-11.565,10.133-19.113,12.509A56.061,56.061,0,0,1,226.238,357.944Zm-36.683-23.961-.128.223c2.037,2.633,4,5.325,6.13,7.882a29.946,29.946,0,0,0,9.808,7.721,49.1,49.1,0,0,0,36.371,3.286c7.192-2.051,13.544-5.532,18.4-11.358,1.873-2.248,3.567-4.645,5.34-6.975.152-.2.284-.414.508-.744a10.526,10.526,0,0,1-1.077,0c-2.757-.322-5.526-.568-8.263-1.011-2.478-.4-4.9-1.163-7.384-1.517a20.584,20.584,0,0,0-12.813,1.793c-5.852,3.041-11.811,2.873-17.723-.044a20.572,20.572,0,0,0-3.74-1.483,24.011,24.011,0,0,0-11.234.106C199.055,332.843,194.441,334.26,189.555,333.983Zm78.173-2.825c-.178-.194-.264-.3-.366-.4-4.648-4.338-9.281-8.694-13.962-12.995a16.626,16.626,0,0,0-3.25-2.379c-4.771-2.593-9.7-3.458-14.9-1.183a18.261,18.261,0,0,1-15.316-.08,12.821,12.821,0,0,0-5.086-1.2,18.189,18.189,0,0,0-13.1,5.034q-6.848,6.382-13.693,12.769c-.118.11-.22.236-.425.457a37.488,37.488,0,0,0,10.069-.8,61.147,61.147,0,0,1,9.987-1.907A21.942,21.942,0,0,1,219.8,330.6a16.472,16.472,0,0,0,15.836.029,21.188,21.188,0,0,1,5.269-1.85,29.671,29.671,0,0,1,13.4.783A42.36,42.36,0,0,0,267.729,331.157Z" fill="#e1251a"/><path d="M207.921,333.873s-6.108,47.992,22.687,47.992S253.3,333.873,253.3,333.873s-.873-.873-4.363-.873-6.108.873-10.471,2.618a21.669,21.669,0,0,1-14.834,0c-4.363-1.745-5.236-2.618-9.6-2.618S207.921,333.873,207.921,333.873Z" transform="translate(-2.971 -2.921)" fill="#e05f5f"/><path d="M205.168,352.846q-2.054-1.018-4.056-2.267a34.937,34.937,0,0,1-9.361-8.676q-3.575-4.734-7.121-9.488c-.814-1.088-.762-1.633.238-2.566,5.013-4.679,10-9.386,15.051-14.024a20.363,20.363,0,0,1,16.961-5.51,15.871,15.871,0,0,1,4.177,1.262,15.9,15.9,0,0,0,13.271-.032c5.178-2.3,10.283-1.7,15.33.414a19.766,19.766,0,0,1,5.825,3.873q7.522,7.016,15.042,14.033c.931.869,1.039,1.46.366,2.359-2.688,3.586-5.318,7.219-8.107,10.725a35.732,35.732,0,0,1-12.69,9.987l.392-3.345a32.723,32.723,0,0,0,9.649-7.851c1.873-2.248,3.567-4.645,5.34-6.975.152-.2.284-.414.508-.744a10.526,10.526,0,0,1-1.077,0c-2.757-.322-5.526-.568-8.263-1.011-2.478-.4-4.9-1.163-7.384-1.517a20.584,20.584,0,0,0-12.813,1.793c-5.852,3.041-11.811,2.873-17.723-.044a20.572,20.572,0,0,0-3.74-1.483,24.011,24.011,0,0,0-11.234.106c-4.695.983-9.309,2.4-14.194,2.123l-.128.223c2.037,2.633,4,5.325,6.13,7.882a29.887,29.887,0,0,0,9.225,7.425Zm62.56-21.689c-.178-.194-.264-.3-.366-.4-4.648-4.338-9.281-8.694-13.962-12.995a16.626,16.626,0,0,0-3.25-2.379c-4.771-2.593-9.7-3.458-14.9-1.183a18.261,18.261,0,0,1-15.316-.08,12.821,12.821,0,0,0-5.086-1.2,18.189,18.189,0,0,0-13.1,5.034q-6.848,6.382-13.693,12.769c-.118.11-.22.236-.425.457a37.488,37.488,0,0,0,10.069-.8,61.147,61.147,0,0,1,9.987-1.907A21.942,21.942,0,0,1,219.8,330.6a16.472,16.472,0,0,0,15.836.029,21.188,21.188,0,0,1,5.269-1.85,29.671,29.671,0,0,1,13.4.783A42.36,42.36,0,0,0,267.729,331.157Z" fill="#e1251a"/><g transform="translate(243.611 330.204)"><line x1="3.526" y1="4.114" transform="translate(3.526 1.763)" fill="none" stroke="#7ac943" stroke-linecap="round" stroke-miterlimit="10" stroke-width="2"/><line x1="4.114" y2="2.938" transform="translate(2.351 7.64)" fill="none" stroke="#7ac943" stroke-linecap="round" stroke-miterlimit="10" stroke-width="2"/><line y2="4.114" transform="translate(7.64 7.64)" fill="none" stroke="#7ac943" stroke-linecap="round" stroke-miterlimit="10" stroke-width="2"/><line y1="4.114" x2="1.175" transform="translate(8.227 2.351)" fill="none" stroke="#7ac943" stroke-linecap="round" stroke-miterlimit="10" stroke-width="2"/><line x2="4.114" y2="1.763" transform="translate(8.815 7.052)" fill="none" stroke="#7ac943" stroke-linecap="round" stroke-miterlimit="10" stroke-width="2"/><circle cx="2.938" cy="2.938" r="2.938" transform="translate(4.701 3.526)" fill="#2baa02"/><circle cx="0.881" cy="0.881" r="0.881" transform="translate(2.351 0.588)" fill="#2baa02"/><circle cx="1.469" cy="1.469" r="1.469" transform="translate(8.227)" fill="#2baa02"/><circle cx="1.469" cy="1.469" r="1.469" transform="translate(0 9.696)" fill="#2baa02"/><circle cx="1.175" cy="1.175" r="1.175" transform="translate(6.464 11.166)" fill="#2baa02"/><circle cx="0.881" cy="0.881" r="0.881" transform="translate(12.635 8.227)" fill="#2baa02"/></g><g transform="translate(199.109 351.146)"><line x1="3.526" y1="4.114" transform="translate(3.526 1.763)" fill="none" stroke="#7ac943" stroke-linecap="round" stroke-miterlimit="10" stroke-width="2"/><line x1="4.114" y2="2.938" transform="translate(2.351 7.64)" fill="none" stroke="#7ac943" stroke-linecap="round" stroke-miterlimit="10" stroke-width="2"/><line y2="4.114" transform="translate(7.64 7.64)" fill="none" stroke="#7ac943" stroke-linecap="round" stroke-miterlimit="10" stroke-width="2"/><line y1="4.114" x2="1.175" transform="translate(8.227 2.351)" fill="none" stroke="#7ac943" stroke-linecap="round" stroke-miterlimit="10" stroke-width="2"/><line x2="4.114" y2="1.763" transform="translate(8.815 7.052)" fill="none" stroke="#7ac943" stroke-linecap="round" stroke-miterlimit="10" stroke-width="2"/><circle cx="2.938" cy="2.938" r="2.938" transform="translate(4.701 3.526)" fill="#2baa02"/><circle cx="0.881" cy="0.881" r="0.881" transform="translate(2.351 0.588)" fill="#2baa02"/><circle cx="1.469" cy="1.469" r="1.469" transform="translate(8.227)" fill="#2baa02"/><circle cx="1.469" cy="1.469" r="1.469" transform="translate(0 9.696)" fill="#2baa02"/><circle cx="1.175" cy="1.175" r="1.175" transform="translate(6.464 11.166)" fill="#2baa02"/><circle cx="0.881" cy="0.881" r="0.881" transform="translate(12.635 8.227)" fill="#2baa02"/></g></g></g></svg>