<svg xmlns="http://www.w3.org/2000/svg" width="100" height="100" viewBox="0 0 100 100"><g transform="translate(-694 -2291)"><circle cx="50" cy="50" r="50" transform="translate(694 2291)" fill="#ff5100"/><g transform="translate(190.634 2015.557)"><path d="M590.343,355.994c-7.168,2.65-14.439,3.968-22,2.12a3.564,3.564,0,0,1-1.967-2.232,49.661,49.661,0,0,1-.937-5.551c-.576-3.315-1.923-4.382-5.31-4.475a55.169,55.169,0,0,1-6.423-.464c-2.109-.308-2.673-1.554-2.092-3.7a4.157,4.157,0,0,0-.714-3.348c-1.411-1.57-1.143-2.4.63-3.086,1.3-.507,2.634-.945,4.3-1.537l-6.573-3.019,1.283-3.12c-.209-.193-.322-.382-.476-.427-4.162-1.206-4.476-1.941-1.713-5.369,2.7-3.346,4-6.6,3.4-11.283-.722-5.579,2.286-10.359,6.994-13.662,8.71-6.112,22.9-6.256,31.8-.418,8.045,5.278,11.9,17.854,7.824,27.758a44.2,44.2,0,0,1-7.676,11.62c-2.479,2.868-3.463,5.674-2.706,9.24S589.515,352.166,590.343,355.994Z" transform="translate(-6.638)" fill="#754c24"/><line x1="17.415" y1="9.843" transform="translate(517.909 320.227)" stroke-dasharray="7" stroke="#9164cb" stroke-linecap="round" stroke-miterlimit="10" stroke-width="4" fill="none"/><line x1="21.2" transform="translate(513.366 333.856)" stroke-dasharray="7" stroke="#9164cb" stroke-linecap="round" stroke-miterlimit="10" stroke-width="4" fill="none"/><line x1="17.415" y2="9.843" transform="translate(517.909 337.641)" stroke-dasharray="7" stroke="#9164cb" stroke-linecap="round" stroke-miterlimit="10" stroke-width="4" fill="none"/></g></g></svg>