<svg xmlns="http://www.w3.org/2000/svg" width="100" height="100" viewBox="0 0 100 100"><g transform="translate(-694 -2291)"><circle cx="50" cy="50" r="50" transform="translate(694 2291)" fill="#ff5100"/><g transform="translate(393.729 1864.192)"><path d="M367.656,456.558a1.716,1.716,0,0,0,2.048-.289c3.393-3.418,6.933-6.96,10.433-10.54,2.528-2.587,4.993-5.235,7.475-7.866.764-.81,1.624-1.336,2.6-.486.957.833.7,1.8-.1,2.622q-9.644,9.826-19.316,19.624a10.571,10.571,0,0,1-1.586,1.216,1.652,1.652,0,0,1-2.5-.38A6.145,6.145,0,0,0,359.2,458.2a7.716,7.716,0,0,0-4.181,7.406,6.561,6.561,0,0,0,5.283,6.1,5.614,5.614,0,0,1,4.176,4.1c1.108,3.542,3.4,5.365,6.547,5.377,5.27.02,8.322-5.245,5.84-10.071-1.476-2.869-1.3-3.9.981-6.157q8.9-8.81,17.78-17.64c.356-.352.663-.893,1.085-1.008a3.466,3.466,0,0,1,.464-.092,1.7,1.7,0,0,1,1.928,1.911.8.8,0,0,1-.159.377c-1.419,1.7-3.08,3.207-4.659,4.776-4.659,4.629-9.3,9.276-14,13.86a1.908,1.908,0,0,0-.465,2.685,9.841,9.841,0,0,1-1.957,12.215c-3.917,3.714-13.193,4.236-16.1-4.049a4.856,4.856,0,0,0-3.375-3.455c-5.241-1.719-7.791-7.169-6.186-12.71,1.514-5.223,6.594-8.459,11.539-7.126A18.582,18.582,0,0,1,367.656,456.558Z" transform="translate(-7.19 0)" fill="#f2cd00"/><path d="M339.656,505.082c-3.185,3.071-6.453,6.162-9.651,9.324-3.165,3.13-6.257,6.334-9.382,9.5-.157.158-.318.312-.48.465a1.668,1.668,0,0,1-2.523.14c-.827-.813-.59-1.721.177-2.5,2.382-2.42,4.737-4.866,7.159-7.245,3.733-3.664,7.511-7.283,11.278-10.913a16.144,16.144,0,0,1,1.407-1.178c2.189-1.671,2.857-2.271,4.892.247a5.594,5.594,0,0,0,7,1.267,7.655,7.655,0,0,0,3.817-7.884,6.421,6.421,0,0,0-5.709-5.466c-2.23-.339-2.756-.837-3.336-3.09a14.138,14.138,0,0,0-.879-3.014,6.346,6.346,0,0,0-8.326-3.077c-3.474,1.407-4.459,4.008-3.807,7.909a.879.879,0,0,0,.1.317c2.4,3.938.448,6.475-2.5,9.122-5.463,4.9-10.653,10.112-15.958,15.192-.442.423-.885.847-1.338,1.257-.789.716-1.652,1.036-2.49.145a1.614,1.614,0,0,1,.227-2.495c1.956-1.9,3.928-3.782,5.9-5.667,4.263-4.078,8.5-8.183,12.813-12.207a2.2,2.2,0,0,0,.614-3.084,10.205,10.205,0,0,1,1.84-11.6c4.194-4.061,13.2-4.105,16.15,3.21.853,2.117,1.273,3.979,4.14,4.684,3.945.97,5.563,4.428,5.864,8.275a10.213,10.213,0,0,1-4.308,9.6,8.852,8.852,0,0,1-9.472.9A27.426,27.426,0,0,1,339.656,505.082Z" transform="translate(0 -6.815)" fill="#f2cd00"/><path d="M336.233,465.1a1.555,1.555,0,0,1-1.246-.622l-6.333-8.431a1.559,1.559,0,1,1,2.492-1.872l6.333,8.431a1.559,1.559,0,0,1-1.246,2.495Z" transform="translate(-3.291 -2.771)" fill="#f2cd00"/><path d="M344.691,462.831a1.52,1.52,0,0,1-.259-.022,1.558,1.558,0,0,1-1.28-1.795l1.741-10.4a1.559,1.559,0,0,1,3.075.515l-1.742,10.4A1.558,1.558,0,0,1,344.691,462.831Z" transform="translate(-5.757 -2.063)" fill="#f2cd00"/><path d="M333.336,473.937l-.08,0-10.531-.533a1.558,1.558,0,1,1,.157-3.113l10.531.533a1.558,1.558,0,0,1-.077,3.115Z" transform="translate(-2.107 -5.562)" fill="#f2cd00"/><path d="M385.642,515.394a1.553,1.553,0,0,1-1.139-.493l-7.2-7.7a1.558,1.558,0,1,1,2.276-2.129l7.2,7.7a1.558,1.558,0,0,1-1.137,2.623Z" transform="translate(-11.386 -11.28)" fill="#f2cd00"/><path d="M392.081,501.032h-.014l-10.544-.092a1.558,1.558,0,0,1,.013-3.116h.014l10.544.091a1.559,1.559,0,0,1-.013,3.117Z" transform="translate(-11.903 -10.154)" fill="#f2cd00"/><path d="M369.376,518.925a1.7,1.7,0,0,1-.194-.012,1.56,1.56,0,0,1-1.355-1.74l1.3-10.464a1.559,1.559,0,0,1,3.094.385l-1.3,10.463A1.559,1.559,0,0,1,369.376,518.925Z" transform="translate(-9.874 -11.408)" fill="#f2cd00"/></g></g></svg>