<svg xmlns="http://www.w3.org/2000/svg" width="100" height="100" viewBox="0 0 100 100"><g transform="translate(-694 -2291)"><circle cx="50" cy="50" r="50" transform="translate(694 2291)" fill="#ff5100"/><g transform="translate(282.397 23.426)"><g transform="translate(416 2275)"><g transform="translate(14.623 28.575)"><path d="M398.741,186.723c-.08-6.31-4.793-7.348-4.793-7.348a8.226,8.226,0,0,0-3.116-9.027s-2-1.837-6.71-1.358a9.512,9.512,0,0,0-5.591-4.793,6.507,6.507,0,0,0-6.311,1.039s-1.118-3.035-6.71-3.754a7.657,7.657,0,0,0-7.1,4.553,7.763,7.763,0,0,0-8.08,2.4c-3.675,3.994-2.4,6.95-2.4,6.95s-4.953,2.077-4.953,7.269,3.115,8.228,7.269,9.026l8.16.08s1.026,5.911,8.934,5.352c0,0-.754,8.814,7.349,9.905,0,0,5.511-1.2,5.591,9.585,0,0,.639,2.157,2.077,1.917a2.051,2.051,0,0,0,1.917-1.917c-.079-.559.719-12.861-8.308-13.1,0,0-4.633.719-5.112-4.633,0,0-.079-4.314,3.994-4.473s13.26,0,13.26,0,2.077,0,2.236,1.837-1.917,1.917-1.917,1.917h-8.388s-1.837.479-1.757,1.917a1.771,1.771,0,0,0,1.757,1.757h8.787s3.835-.479,4.553-3.355,0-3.914,0-3.914A7.809,7.809,0,0,0,398.741,186.723Zm-7.216,4.775a9.67,9.67,0,0,1-1.775-.533c-1.242-.461-14.7-.212-15.656-.035a7.71,7.71,0,0,0-4.669,2.5s-7.269,1.295-7.908-3.426,3.954-4.881,3.954-4.881h12.9a2.5,2.5,0,0,1,2.316,1.6,1.85,1.85,0,0,0,3.2.479c.479-.878.4-2.4-1.678-4.393,0,0,2.876-3.275.959-5.033s-3.41,1.126-3.595,2.157.08,1.6-3.914,1.6H365.43a7.869,7.869,0,0,0-7.588,6.71h-7.029s-5.192-2.157-4.154-6.231a4.794,4.794,0,0,1,4.953-3.754s1.518.16.639-2-1.118-5.192,2.477-6.71,3.835,1.119,5.192.959,1.438-2,1.438-2a4.752,4.752,0,0,1,4.713-3.275,4.545,4.545,0,0,1,4.313,3.594s.559,1.758,1.438,1.518,2.556-3.834,6.471-2.4,2.556,5.432,3.275,5.512a1.035,1.035,0,0,0,1.367.177c.817-.5,3.835-2.521,6.355.248a4.885,4.885,0,0,1,.426,6.284c-.5.71-.639,1.633.248,1.882s4.97.39,5.148,4.3C395.11,186.35,395.643,190.54,391.524,191.5Z" transform="translate(-342.984 -161.479)" fill="#e1251a"/><path d="M357.566,183.9s1.864-.745,1.864-4.207,3.2.426,5.486,0,3.461-1.384,4.1-3.408,2.308-.959,2.911.213,4.6.852,5.663.107,3.035,1.172,2.024,2.29-3.142,2.769-8.52,1.278c0,0-3.2,4.793-8.574,3.089,0,0-2.13,5.006-4.42,3.621S357.566,183.9,357.566,183.9Z" transform="translate(-346.675 -165.099)" fill="#e1251a"/></g><path d="M331.562,136.286l4.38,10.854-5.149.188,8.276,12.306-4.274-9.9,5-.463Z" transform="translate(-325.132 -126.231)" fill="#e1251a"/><path d="M323.092,171.159l7.109-1.333-1.333,2.666,3.629.592-6.887,1.481,1.481-2.37Z" transform="translate(-323.092 -135.115)" fill="#f2ce00"/><path d="M385.348,122.609l-.839,11.675-4.707-2.1,2.022,14.691.512-10.769,4.693,1.781Z" transform="translate(-338.113 -122.609)" fill="#e1251a"/><path d="M358.409,139.116l4.764,7.909-3.783-.406.909,4.6-4.842-7.577,3.495.715Z" transform="translate(-331.665 -126.981)" fill="#f2ce00"/><path d="M439.759,145.818l-8.946,7.548-1.785-4.833-9.109,11.7,8.069-7.149,2,4.6Z" transform="translate(-348.738 -128.756)" fill="#e1251a"/><path d="M412.6,147.689l-5.181,7.642-1.219-3.6-3.8,2.757,4.847-7.574.817,3.472Z" transform="translate(-344.097 -129.045)" fill="#f2ce00"/><path d="M438.106,173.41l-7.955,4.687.443-3.779-4.613.864,7.624-4.768-.749,3.488Z" transform="translate(-350.344 -135.271)" fill="#f2ce00"/></g></g></g></svg>