<svg xmlns="http://www.w3.org/2000/svg" width="100" height="100" viewBox="0 0 100 100"><g transform="translate(-694 -2291)"><circle cx="50" cy="50" r="50" transform="translate(694 2291)" fill="#ff5100"/><g transform="translate(-89.546 1856.833)"><path d="M841.957,443.278a42.118,42.118,0,0,0-36.229,6.708,32.794,32.794,0,1,1-12.182,53.872,42.2,42.2,0,1,0,48.411-60.58Z" transform="translate(0 0)" fill="#f2ce00"/><path d="M817.72,485.269s-5.625,15.6-5.987,17.418c-.249,1.246-.907,7.258,5.987,7.258s5.819-6.3,5.443-7.8C822.8,500.691,817.72,485.269,817.72,485.269Z" transform="translate(-2.813 -6.783)" fill="#6fceea"/><path d="M828.467,462.7s-5.625,15.6-5.987,17.419c-.249,1.245-.907,7.257,5.987,7.257s5.819-6.3,5.443-7.8C833.547,478.122,828.467,462.7,828.467,462.7Z" transform="translate(-4.488 -3.265)" fill="#6fceea"/></g></g></svg>