<svg xmlns="http://www.w3.org/2000/svg" width="100" height="100" viewBox="0 0 100 100"><g transform="translate(-694 -2291)"><circle cx="50" cy="50" r="50" transform="translate(694 2291)" fill="#ff5100"/><g transform="translate(341.74 2008.19)"><path d="M369.875,338.377c4.528.257,8.8-1.057,13.155-1.968a22.238,22.238,0,0,1,10.411-.1,19.056,19.056,0,0,1,3.466,1.374c5.479,2.7,11,2.859,16.426.04a19.071,19.071,0,0,1,11.875-1.661c2.3.327,4.546,1.033,6.844,1.4,2.537.412,5.1.639,7.658.938a9.7,9.7,0,0,0,1,0c-.208.306-.33.505-.47.69-1.643,2.16-3.214,4.382-4.95,6.465-4.5,5.4-10.387,8.626-17.052,10.526a45.5,45.5,0,0,1-33.709-3.046,27.746,27.746,0,0,1-9.09-7.156c-1.972-2.369-3.792-4.865-5.68-7.305Z" transform="translate(-1.526 -4.297)" fill="#e1251a"/><path d="M441.948,331.926a39.252,39.252,0,0,1-12.448-1.478,27.5,27.5,0,0,0-12.416-.726,19.69,19.69,0,0,0-4.883,1.715,15.267,15.267,0,0,1-14.676-.027,20.338,20.338,0,0,0-11.223-1.97,56.663,56.663,0,0,0-9.256,1.767,34.738,34.738,0,0,1-9.332.741c.19-.205.284-.322.394-.424q6.344-5.918,12.69-11.834a16.855,16.855,0,0,1,12.14-4.665,11.877,11.877,0,0,1,4.714,1.115,16.917,16.917,0,0,0,14.2.074c4.822-2.107,9.386-1.306,13.809,1.1a15.416,15.416,0,0,1,3.011,2.2c4.339,3.986,8.632,8.023,12.941,12.043C441.7,331.646,441.783,331.746,441.948,331.926Z" transform="translate(-1.149 -0.465)" fill="#e1251a"/><g transform="translate(426.083 312.482)"><circle cx="1.411" cy="1.411" r="1.411" transform="translate(0.282 9.033)" fill="#6d0f0d"/><circle cx="1.411" cy="1.411" r="1.411" transform="translate(14.115 3.388)" fill="#6d0f0d"/><circle cx="4.093" cy="4.093" r="4.093" transform="translate(8.751 7.057)" fill="#6d0f0d"/><circle cx="2.964" cy="2.964" r="2.964" transform="translate(1.976 14.115)" fill="#6d0f0d"/><circle cx="3.529" cy="3.529" r="3.529" fill="#6d0f0d"/></g><g transform="translate(362.157 320.358)"><line x1="3.294" y1="3.843" transform="translate(3.294 1.647)" fill="none" stroke="#7ac943" stroke-linecap="round" stroke-miterlimit="10" stroke-width="2"/><line x1="3.843" y2="2.745" transform="translate(2.196 7.137)" fill="none" stroke="#7ac943" stroke-linecap="round" stroke-miterlimit="10" stroke-width="2"/><line y2="3.843" transform="translate(7.137 7.137)" fill="none" stroke="#7ac943" stroke-linecap="round" stroke-miterlimit="10" stroke-width="2"/><line y1="3.843" x2="1.098" transform="translate(7.686 2.196)" fill="none" stroke="#7ac943" stroke-linecap="round" stroke-miterlimit="10" stroke-width="2"/><line x2="3.843" y2="1.647" transform="translate(8.235 6.588)" fill="none" stroke="#7ac943" stroke-linecap="round" stroke-miterlimit="10" stroke-width="2"/><circle cx="2.745" cy="2.745" r="2.745" transform="translate(4.392 3.294)" fill="#2baa02"/><circle cx="0.824" cy="0.824" r="0.824" transform="translate(2.196 0.549)" fill="#2baa02"/><circle cx="1.373" cy="1.373" r="1.373" transform="translate(7.686 0)" fill="#2baa02"/><circle cx="1.373" cy="1.373" r="1.373" transform="translate(0 9.059)" fill="#2baa02"/><circle cx="1.098" cy="1.098" r="1.098" transform="translate(6.039 10.431)" fill="#2baa02"/><circle cx="0.824" cy="0.824" r="0.824" transform="translate(11.804 7.686)" fill="#2baa02"/></g><g transform="translate(428.188 329.326)"><line x1="3.294" y1="3.843" transform="translate(3.294 1.647)" fill="none" stroke="#7ac943" stroke-linecap="round" stroke-miterlimit="10" stroke-width="2"/><line x1="3.843" y2="2.745" transform="translate(2.196 7.137)" fill="none" stroke="#7ac943" stroke-linecap="round" stroke-miterlimit="10" stroke-width="2"/><line y2="3.843" transform="translate(7.137 7.137)" fill="none" stroke="#7ac943" stroke-linecap="round" stroke-miterlimit="10" stroke-width="2"/><line y1="3.843" x2="1.098" transform="translate(7.686 2.196)" fill="none" stroke="#7ac943" stroke-linecap="round" stroke-miterlimit="10" stroke-width="2"/><line x2="3.843" y2="1.647" transform="translate(8.235 6.588)" fill="none" stroke="#7ac943" stroke-linecap="round" stroke-miterlimit="10" stroke-width="2"/><circle cx="2.745" cy="2.745" r="2.745" transform="translate(4.392 3.294)" fill="#2baa02"/><circle cx="0.824" cy="0.824" r="0.824" transform="translate(2.196 0.549)" fill="#2baa02"/><circle cx="1.373" cy="1.373" r="1.373" transform="translate(7.686)" fill="#2baa02"/><circle cx="1.373" cy="1.373" r="1.373" transform="translate(0 9.059)" fill="#2baa02"/><circle cx="1.098" cy="1.098" r="1.098" transform="translate(6.039 10.431)" fill="#2baa02"/><circle cx="0.824" cy="0.824" r="0.824" transform="translate(11.804 7.686)" fill="#2baa02"/></g><g transform="translate(361.5 328.071)"><circle cx="1.411" cy="1.411" r="1.411" transform="translate(0.282 9.033)" fill="#6d0f0d"/><circle cx="1.411" cy="1.411" r="1.411" transform="translate(14.115 3.388)" fill="#6d0f0d"/><circle cx="4.093" cy="4.093" r="4.093" transform="translate(8.751 7.057)" fill="#6d0f0d"/><circle cx="2.964" cy="2.964" r="2.964" transform="translate(1.976 14.115)" fill="#6d0f0d"/><circle cx="3.529" cy="3.529" r="3.529" fill="#6d0f0d"/></g></g></g></svg>