<svg xmlns="http://www.w3.org/2000/svg" width="100" height="100" viewBox="0 0 100 100"><g transform="translate(-694 -2291)"><circle cx="50" cy="50" r="50" transform="translate(694 2291)" fill="#ff5100"/><g transform="translate(79.625 1857.625)"><g transform="translate(619.5 438.5)"><circle cx="45" cy="45" r="45" transform="translate(-0.125 -0.125)" fill="#603813"/></g><g transform="translate(643.119 496.759)"><path d="M686.755,514.119c0,3.826-9.164,3.149-20.469,3.149s-20.469.677-20.469-3.149,9.164-10.707,20.469-10.707S686.755,510.293,686.755,514.119Z" transform="translate(-645.816 -503.412)" fill="#e1251a"/></g><g transform="translate(632.734 473.777)"><path d="M646.834,491.332c-9.253,0-12.272-6.615-12.577-10.112a3.141,3.141,0,0,1,6.256-.583c.126,1.046.955,4.413,6.321,4.413,5.971,0,7.211-4.317,7.332-4.81a3.163,3.163,0,0,1,3.766-2.329,3.122,3.122,0,0,1,2.364,3.7C659.565,484.976,655.811,491.332,646.834,491.332Z" transform="translate(-634.246 -477.806)" fill="#42210b"/></g><g transform="translate(668.634 472.517)"><path d="M686.834,489.929c-9.253,0-12.272-6.615-12.577-10.112a3.141,3.141,0,0,1,6.256-.584c.126,1.045.955,4.414,6.321,4.414,6.214,0,7.281-4.575,7.323-4.769a3.141,3.141,0,1,1,6.139,1.335C699.565,483.573,695.811,489.929,686.834,489.929Z" transform="translate(-674.245 -476.401)" fill="#42210b"/></g><g transform="translate(683.112 492.035)"><circle cx="5.196" cy="5.196" r="5.196" fill="#6fceea"/></g><g transform="translate(696.654 485.422)"><circle cx="2.834" cy="2.834" r="2.834" fill="#6fceea"/></g><g transform="translate(684.372 471.881)"><circle cx="6.771" cy="6.771" r="6.771" fill="#6fceea"/></g></g></g></svg>