<svg xmlns="http://www.w3.org/2000/svg" xmlns:xlink="http://www.w3.org/1999/xlink" width="106.044" height="100" viewBox="0 0 106.044 100"><defs><radialGradient id="a" cx="0.5" cy="0.5" r="0.5" gradientUnits="objectBoundingBox"><stop offset="0" stop-color="#ff1d25"/><stop offset="0.154" stop-color="#ff1d25" stop-opacity="0.988"/><stop offset="0.283" stop-color="#ff1d25" stop-opacity="0.945"/><stop offset="0.403" stop-color="#ff1d25" stop-opacity="0.878"/><stop offset="0.519" stop-color="#ff1d25" stop-opacity="0.78"/><stop offset="0.63" stop-color="#ff1d25" stop-opacity="0.655"/><stop offset="0.739" stop-color="#ff1d25" stop-opacity="0.502"/><stop offset="0.845" stop-color="#ff1d25" stop-opacity="0.322"/><stop offset="0.947" stop-color="#ff1d25" stop-opacity="0.118"/><stop offset="1" stop-color="#ff1d25" stop-opacity="0"/></radialGradient></defs><g transform="translate(-691 -2291)"><circle cx="50" cy="50" r="50" transform="translate(694 2291)" fill="#ff5100"/><g transform="translate(234.022 1852.426)"><rect width="52.613" height="70.612" rx="12" transform="translate(484.386 452.893)" fill="#d8b400"/><rect width="15.23" height="56.074" rx="7.615" transform="matrix(0.812, 0.584, -0.584, 0.812, 489.742, 449.574)" fill="#f2ce00"/><circle cx="12.115" cy="12.115" r="12.115" transform="translate(498.231 497.891)" fill="url(#a)"/><rect width="15.23" height="56.074" rx="7.615" transform="matrix(-0.812, 0.584, -0.584, -0.812, 563.022, 495.081)" fill="#f2ce00"/><rect width="15.23" height="56.074" rx="7.615" transform="matrix(0.584, 0.812, -0.812, 0.584, 553.918, 482.598)" fill="#f2ce00"/><rect width="15.23" height="56.074" rx="7.615" transform="translate(511.589 515.363) rotate(125.754)" fill="#f2ce00"/><path d="M492.8,483.492l7.418,8.394L495.63,493.7l11.4,8.459-7.017-7.564,4.361-2.014Z" fill="#e1251a"/><path d="M525.083,481.725l-3.712,10.569-3.819-3.119-1.83,14.074,3.183-9.815,3.885,2.826Z" fill="#e1251a"/></g></g></svg>