<svg xmlns="http://www.w3.org/2000/svg" xmlns:xlink="http://www.w3.org/1999/xlink" width="100" height="100" viewBox="0 0 100 100"><defs><radialGradient id="a" cx="0.5" cy="0.5" r="0.5" gradientTransform="translate(0)" gradientUnits="objectBoundingBox"><stop offset="0" stop-color="#ff1d25"/><stop offset="0.154" stop-color="#ff1d25" stop-opacity="0.988"/><stop offset="0.283" stop-color="#ff1d25" stop-opacity="0.945"/><stop offset="0.403" stop-color="#ff1d25" stop-opacity="0.878"/><stop offset="0.519" stop-color="#ff1d25" stop-opacity="0.78"/><stop offset="0.63" stop-color="#ff1d25" stop-opacity="0.655"/><stop offset="0.739" stop-color="#ff1d25" stop-opacity="0.502"/><stop offset="0.845" stop-color="#ff1d25" stop-opacity="0.322"/><stop offset="0.947" stop-color="#ff1d25" stop-opacity="0.118"/><stop offset="1" stop-color="#ff1d25" stop-opacity="0"/></radialGradient></defs><g transform="translate(-694 -2291)"><circle cx="50" cy="50" r="50" transform="translate(694 2291)" fill="#ff5100"/><g transform="translate(8.493 2162.13)"><path d="M716.676,134.217s-16.615,19.5-17.573,27.966-.48,9.586,1.6,11.662,23.483,13.739,26.518,15.656,12.94,8.147,16.455,12.3,3.315,10.384,3.315,10.923a30.423,30.423,0,0,1,0,4.074c-.182.42-2.188,4.262-2.438,4.873a1.151,1.151,0,0,0,0,1.193c.238.464,3.284,1.877,8.244.224a1.913,1.913,0,0,0,1.238-.879,3.542,3.542,0,0,1,.8-1.318,7.075,7.075,0,0,0,2.336-4.692c.3-2.816.539-8.927,1.5-11.263s2.336-7.009,1.318-8.327-1.677-1.737-3.894-1.977-2.935.239-4.793-1.138a71.654,71.654,0,0,1-8.686-8.148c-2.756-3.115-6.171-6.89-6.83-8.387a13.761,13.761,0,0,0-3.295-4.793c-1.5-1.258-5.991-4.253-9.106-4.613a45.336,45.336,0,0,0-7.863.1c-.4.03-.434-.284.06-.464s5.916-2.786,9.031-4.4,9.226-6.859,10.484-8.327a94.758,94.758,0,0,1,6.739-6.979,18.663,18.663,0,0,1,7.908-3.834c2.236-.319,6.31-4.712,7.188-6.31a12.646,12.646,0,0,0,1.2-3.125Z" transform="translate(0 0)" fill="#c69c6d"/><circle cx="8.934" cy="8.934" r="8.934" transform="translate(719.206 164.459)" fill="url(#a)"/></g></g></svg>