<svg xmlns="http://www.w3.org/2000/svg" xmlns:xlink="http://www.w3.org/1999/xlink" width="100" height="100" viewBox="0 0 100 100"><defs><clipPath id="a"><circle cx="50" cy="50" r="50" transform="translate(164.792 437.001)" fill="none"/></clipPath></defs><g transform="translate(-694 -2291)"><circle cx="50" cy="50" r="50" transform="translate(694 2291)" fill="#ff5100"/><g transform="translate(529.208 1853.999)"><g clip-path="url(#a)"><path d="M253.607,536.667h-76s-6.635-33.125,29.085-35.82a35.176,35.176,0,0,0,.32-10.89c-9.489-3.575-19.4-11.165-19.4-24.29,0-16.015,15.3-29,28-29s28,12.985,28,29c0,12.9-9.679,20.335-18.92,24.1a33.466,33.466,0,0,0-.169,11.385C259.028,505.287,253.607,536.667,253.607,536.667Z" fill="#d8d298"/><circle cx="6" cy="6" r="6" transform="translate(216.357 490.417)" fill="#ff1d25"/><path d="M244.438,485.291l-6.084,5.134-1.214-3.287-6.2,7.959,5.488-4.863,1.36,3.131Z" fill="#e1251a"/><path d="M247.492,499.535l-7.958-.2,1.273-3.265-9.917,1.843,7.333,0-1.06,3.245Z" fill="#e1251a"/><circle cx="6" cy="6" r="6" transform="translate(202.567 490.5)" fill="#ff1d25"/><path d="M186.487,485.375l6.084,5.134,1.214-3.287,6.2,7.959-5.488-4.863-1.36,3.131Z" fill="#e1251a"/><path d="M183.433,499.619l7.958-.2-1.273-3.265L200.035,498l-7.333,0,1.06,3.245Z" fill="#e1251a"/></g></g></g></svg>