<svg xmlns="http://www.w3.org/2000/svg" width="100" height="100" viewBox="0 0 100 100"><g transform="translate(-694 -2291)"><circle cx="50" cy="50" r="50" transform="translate(694 2291)" fill="#ff5100"/><g transform="translate(672.626 2006.622)"><path d="M66.671,310a21.1,21.1,0,0,0,.617-3.427c.077-4.286.026-8.575.051-12.863.006-.946-.346-2.313,1.1-2.373,1.652-.069,1.208,1.418,1.212,2.364.015,4.476,0,8.953-.084,13.428a11.631,11.631,0,0,1-2.06,5.685c-.607,1.027-.387,2.539-.339,3.933,2.91-1.648,5.661-2.008,8.548-.219.407-1.687.629-2.982-.467-4.519a9.691,9.691,0,0,1-1.664-4.894c-.24-4.7-.127-9.426-.154-14.14,0-.809.085-1.64,1.109-1.672,1.119-.035,1.236.836,1.237,1.7.006,4.573-.027,9.147.042,13.718a18.321,18.321,0,0,0,.583,3.135l.425,0c.234-.833.467-1.666.7-2.5a13.855,13.855,0,0,1,3.681-6.668,6.671,6.671,0,0,1,8.045-1.194c3.142,1.566,5.3,4.173,7.253,6.956a75.444,75.444,0,0,1,8.53,16.933,113.223,113.223,0,0,1,6.577,27.271,43,43,0,0,1,.3,5.126,5.964,5.964,0,0,1-6.383,6.21,13.085,13.085,0,0,1-7.878-2.7,22.342,22.342,0,0,0-12.868-4.565,7.552,7.552,0,0,1-7.507-5.876,51.638,51.638,0,0,1-2-13.815c-.113-4.9.149-9.8.172-14.7a2.363,2.363,0,0,0-.753-1.643,4.735,4.735,0,0,0-6.849.952,1.547,1.547,0,0,0-.223.91c.118,3.7.434,7.405.354,11.1a68.733,68.733,0,0,1-2.011,16.969c-1.129,4.085-3.727,6.069-7.916,6.385a30.023,30.023,0,0,0-6.595,1.2,18.455,18.455,0,0,0-4.639,2.471,19.9,19.9,0,0,1-8.085,3.471c-4.322.666-7.63-2.041-7.559-6.4a85.826,85.826,0,0,1,2.67-18.342A101.7,101.7,0,0,1,43.684,311.3a33.451,33.451,0,0,1,7.2-9.533A15.713,15.713,0,0,1,54.6,299.4c3.042-1.369,6.526-.109,8.666,3.095a19.7,19.7,0,0,1,1.832,3.693c.487,1.224.78,2.524,1.159,3.791Zm43.191,44.982c-.6-4.192-1.055-8.411-1.835-12.569a110.129,110.129,0,0,0-5.126-18.09c-2.3-6.191-4.947-12.206-8.993-17.457a26.081,26.081,0,0,0-5.582-5.221c-1.987-1.406-3.927-.859-5.68.866-2.471,2.431-3.1,5.626-3.685,8.814a96.755,96.755,0,0,0-1.292,25.882,95.493,95.493,0,0,0,2.08,11.633,4.28,4.28,0,0,0,4.1,3.422c.616.066,1.224.192,1.84.248A24.2,24.2,0,0,1,98.215,356.9a16.856,16.856,0,0,0,6.377,2.7C107.926,360.291,109.749,358.426,109.862,354.986ZM65.632,329.82a3.947,3.947,0,0,0-.029-.5c-.647-6.143-.748-11.847-1.526-17.973a14.8,14.8,0,0,0-3.25-8.262c-1.906-2.159-4.037-2.551-6.5-1.053a8.114,8.114,0,0,0-2.138,1.655,66.606,66.606,0,0,0-5.793,7.58,91.042,91.042,0,0,0-10.569,28.071,155.736,155.736,0,0,0-2.318,16.234c-.311,3.047,1.739,4.766,4.776,4.3a16.864,16.864,0,0,0,4.577-1.52,36.722,36.722,0,0,0,3.986-2.514,22,22,0,0,1,10.326-3.053c4.623-.4,5.752-1.3,6.859-5.816A64.773,64.773,0,0,0,65.632,329.82Z" transform="translate(0)" fill="#9164cb"/><path d="M110.457,343.927c-.978.451-1.886.843-2.769,1.285a2.074,2.074,0,0,0-1.019,2.66c.089.355.331.583.356.927a4.963,4.963,0,0,1,.111.912.846.846,0,0,1-1.006.717c-.371-.074-.7-.167-.779-.363a25.968,25.968,0,0,1-1.087-3.421.894.894,0,0,1-.018-.453c.051-.213.056-.59.154-.639a8.856,8.856,0,0,1-2.311-.594.989.989,0,0,1-.326-.319,1.157,1.157,0,0,1,.66-1.789,1.006,1.006,0,0,1,.159-.021c.6-.03,1.212.37,1.808.342a8.87,8.87,0,0,0,3.306-.487c2.007-.953,2.187-1.5,1.519-3.611s-1.464-4.213-2.282-6.287a6.935,6.935,0,0,0-3.524-3.77.69.69,0,0,1-.282-.311,1.181,1.181,0,0,1,.814-1.725.557.557,0,0,1,.328.032,9.4,9.4,0,0,1,2.794,1.919,4.3,4.3,0,0,0,5.19,1.131,4.743,4.743,0,0,1,1.271-.25c.526.046.942.076,1.185.45.482.745-.074,1.374-.846,1.618-1.307.412-2.642.742-3.981,1.112.322,3.69,1.426,4.954,4.964,5.678,1.566.32,3.119.777,3.966,2.264a1.208,1.208,0,0,1,.126.606,1.119,1.119,0,0,1-1.258,1.1.9.9,0,0,1-.578-.225c-1.327-1.466-3.048-1.62-4.936-1.826a4.385,4.385,0,0,0,.089.974c.934,2.742,1.728,5.55,2.911,8.183.571,1.27,1.938,2.167,2.841,3.314.372.473.807,1.3.629,1.72-.4.927-1.2.6-1.915.138a12.2,12.2,0,0,1-4.518-5.932C111.541,347.355,111.049,345.659,110.457,343.927Z" transform="translate(-20.45 -10.363)" fill="#9164cb"/><path d="M56.933,341.021c-2.1.053-3.792.226-5.077,1.765a1.141,1.141,0,0,1-.83.218.954.954,0,0,1-.961-.78,1.336,1.336,0,0,1,.035-.826c.9-1.739,2.761-2.1,4.491-2.552.433-.113.873-.188,1.315-.262a2.95,2.95,0,0,0,2.466-2.614,25.112,25.112,0,0,1,.916-2.679c-1.475-.394-2.805-.712-4.11-1.114-.771-.238-1.25-.805-.9-1.642.358-.866,1.072-.822,1.8-.459,2.4,1.2,4.443.917,6.261-1.2a6.43,6.43,0,0,1,2.5-1.586.871.871,0,0,1,.631.094,1.075,1.075,0,0,1,.574,1.376.927.927,0,0,1-.382.529c-2.4,1.151-3.583,3.2-4.378,5.553-.531,1.576-1.006,3.173-1.464,4.772-.519,1.805-.02,3.029,1.8,3.472a13.745,13.745,0,0,0,4.333.118c.807-.068,1.579-.365,1.877.628.322,1.072-.454,1.424-1.322,1.608-.605.128-1.214.235-1.513.292a44.147,44.147,0,0,1-1.05,4.317,1.249,1.249,0,0,1-1.941.8c-.863-.572-.419-1.273.018-1.971.978-1.561.471-2.869-1.268-3.589-.7-.289-1.346-.692-2.191-1.133-.283.9-.555,1.788-.837,2.669a16.581,16.581,0,0,1-4.035,7.289,5.888,5.888,0,0,1-1.857,1.29,1.194,1.194,0,0,1-1.427-.364,1.467,1.467,0,0,1,.27-1.432C55.043,350.582,55.586,345.727,56.933,341.021Z" transform="translate(-5.475 -10.449)" fill="#9164cb"/><g transform="translate(96.674 342.877)"><line y1="3.344" x2="2.867" transform="translate(5.972 1.433)" fill="none" stroke="#7ac943" stroke-linecap="round" stroke-miterlimit="10" stroke-width="2"/><line x2="3.344" y2="2.389" transform="translate(6.45 6.211)" fill="none" stroke="#7ac943" stroke-linecap="round" stroke-miterlimit="10" stroke-width="2"/><line y2="3.344" transform="translate(5.494 6.211)" fill="none" stroke="#7ac943" stroke-linecap="round" stroke-miterlimit="10" stroke-width="2"/><line x1="0.956" y1="3.344" transform="translate(4.061 1.911)" fill="none" stroke="#7ac943" stroke-linecap="round" stroke-miterlimit="10" stroke-width="2"/><line x1="3.344" y2="1.433" transform="translate(1.194 5.733)" fill="none" stroke="#7ac943" stroke-linecap="round" stroke-miterlimit="10" stroke-width="2"/><circle cx="2.389" cy="2.389" r="2.389" transform="translate(3.106 2.867)" fill="#2baa02"/><circle cx="0.717" cy="0.717" r="0.717" transform="translate(8.361 0.478)" fill="#2baa02"/><circle cx="1.194" cy="1.194" r="1.194" transform="translate(2.628)" fill="#2baa02"/><circle cx="1.194" cy="1.194" r="1.194" transform="translate(9.317 7.883)" fill="#2baa02"/><circle cx="0.956" cy="0.956" r="0.956" transform="translate(4.539 9.078)" fill="#2baa02"/><circle cx="0.717" cy="0.717" r="0.717" transform="translate(0 6.689)" fill="#2baa02"/></g><g transform="translate(40.629 303.149)"><line y1="3.344" x2="2.867" transform="translate(5.972 1.433)" fill="none" stroke="#7ac943" stroke-linecap="round" stroke-miterlimit="10" stroke-width="2"/><line x2="3.344" y2="2.389" transform="translate(6.45 6.211)" fill="none" stroke="#7ac943" stroke-linecap="round" stroke-miterlimit="10" stroke-width="2"/><line y2="3.344" transform="translate(5.494 6.211)" fill="none" stroke="#7ac943" stroke-linecap="round" stroke-miterlimit="10" stroke-width="2"/><line x1="0.956" y1="3.344" transform="translate(4.061 1.911)" fill="none" stroke="#7ac943" stroke-linecap="round" stroke-miterlimit="10" stroke-width="2"/><line x1="3.344" y2="1.433" transform="translate(1.194 5.733)" fill="none" stroke="#7ac943" stroke-linecap="round" stroke-miterlimit="10" stroke-width="2"/><circle cx="2.389" cy="2.389" r="2.389" transform="translate(3.106 2.867)" fill="#2baa02"/><circle cx="0.717" cy="0.717" r="0.717" transform="translate(8.361 0.478)" fill="#2baa02"/><circle cx="1.194" cy="1.194" r="1.194" transform="translate(2.628 0)" fill="#2baa02"/><circle cx="1.194" cy="1.194" r="1.194" transform="translate(9.317 7.883)" fill="#2baa02"/><circle cx="0.956" cy="0.956" r="0.956" transform="translate(4.539 9.078)" fill="#2baa02"/><circle cx="0.717" cy="0.717" r="0.717" transform="translate(0 6.689)" fill="#2baa02"/></g><g transform="translate(46.305 343.586)"><line x2="2.867" y2="3.344" transform="translate(5.972 6.211)" fill="none" stroke="#7ac943" stroke-linecap="round" stroke-miterlimit="10" stroke-width="2"/><line y1="2.389" x2="3.344" transform="translate(6.45 2.389)" fill="none" stroke="#7ac943" stroke-linecap="round" stroke-miterlimit="10" stroke-width="2"/><line y1="3.344" transform="translate(5.494 1.433)" fill="none" stroke="#7ac943" stroke-linecap="round" stroke-miterlimit="10" stroke-width="2"/><line x1="0.956" y2="3.344" transform="translate(4.061 5.733)" fill="none" stroke="#7ac943" stroke-linecap="round" stroke-miterlimit="10" stroke-width="2"/><line x1="3.344" y1="1.433" transform="translate(1.194 3.822)" fill="none" stroke="#7ac943" stroke-linecap="round" stroke-miterlimit="10" stroke-width="2"/><circle cx="2.389" cy="2.389" r="2.389" transform="translate(3.106 3.344)" fill="#2baa02"/><circle cx="0.717" cy="0.717" r="0.717" transform="translate(8.361 9.078)" fill="#2baa02"/><circle cx="1.194" cy="1.194" r="1.194" transform="translate(2.628 8.6)" fill="#2baa02"/><circle cx="1.194" cy="1.194" r="1.194" transform="translate(9.317 0.717)" fill="#2baa02"/><circle cx="0.956" cy="0.956" r="0.956" transform="translate(4.539)" fill="#2baa02"/><circle cx="0.717" cy="0.717" r="0.717" transform="translate(0 2.867)" fill="#2baa02"/></g><g transform="translate(79.648 313.79)"><line x1="2.867" y1="3.344" transform="translate(2.867 1.433)" fill="none" stroke="#7ac943" stroke-linecap="round" stroke-miterlimit="10" stroke-width="2"/><line x1="3.344" y2="2.389" transform="translate(1.911 6.211)" fill="none" stroke="#7ac943" stroke-linecap="round" stroke-miterlimit="10" stroke-width="2"/><line y2="3.344" transform="translate(6.211 6.211)" fill="none" stroke="#7ac943" stroke-linecap="round" stroke-miterlimit="10" stroke-width="2"/><line y1="3.344" x2="0.956" transform="translate(6.689 1.911)" fill="none" stroke="#7ac943" stroke-linecap="round" stroke-miterlimit="10" stroke-width="2"/><line x2="3.344" y2="1.433" transform="translate(7.167 5.733)" fill="none" stroke="#7ac943" stroke-linecap="round" stroke-miterlimit="10" stroke-width="2"/><circle cx="2.389" cy="2.389" r="2.389" transform="translate(3.822 2.867)" fill="#2baa02"/><circle cx="0.717" cy="0.717" r="0.717" transform="translate(1.911 0.478)" fill="#2baa02"/><circle cx="1.194" cy="1.194" r="1.194" transform="translate(6.689)" fill="#2baa02"/><circle cx="1.194" cy="1.194" r="1.194" transform="translate(0 7.883)" fill="#2baa02"/><circle cx="0.956" cy="0.956" r="0.956" transform="translate(5.256 9.078)" fill="#2baa02"/><circle cx="0.717" cy="0.717" r="0.717" transform="translate(10.272 6.689)" fill="#2baa02"/></g></g></g></svg>