<svg xmlns="http://www.w3.org/2000/svg" width="100" height="100" viewBox="0 0 100 100"><g transform="translate(-694 -2291)"><circle cx="50" cy="50" r="50" transform="translate(694 2291)" fill="#ff5100"/><g transform="translate(548.216 2171.345)"><rect width="67.432" height="71.701" rx="12" transform="translate(162.534 133.402)" fill="#6fceea"/><rect width="56.193" height="27.347" rx="12" transform="translate(168.524 138.404)" fill="#f4e6dc"/><g transform="translate(171.746 140.172)"><g transform="translate(0)"><path d="M183.21,166.927h0a1.46,1.46,0,0,1-1.851-.094l-4.98-4.858a1.039,1.039,0,0,1,.108-1.607h0a1.46,1.46,0,0,1,1.851.094l4.98,4.858A1.039,1.039,0,0,1,183.21,166.927Z" transform="translate(-176.049 -148.667)" fill="#6fceea"/><path d="M188.568,159.926h0a1.451,1.451,0,0,1-1.835-.229l-4.49-5.205a1.045,1.045,0,0,1,.264-1.593h0a1.451,1.451,0,0,1,1.836.229l4.49,5.205A1.045,1.045,0,0,1,188.568,159.926Z" transform="translate(-177.938 -146.307)" fill="#6fceea"/><path d="M195.789,155.262h0a1.41,1.41,0,0,1-1.749-.534l-3.243-5.862a1.08,1.08,0,0,1,.615-1.519h0a1.41,1.41,0,0,1,1.75.534l3.242,5.862A1.08,1.08,0,0,1,195.789,155.262Z" transform="translate(-180.704 -144.577)" fill="#6fceea"/><path d="M203.8,152.557h0a1.351,1.351,0,0,1-1.616-.79l-2.015-6.263a1.132,1.132,0,0,1,.911-1.4h0a1.351,1.351,0,0,1,1.615.79l2.015,6.263A1.131,1.131,0,0,1,203.8,152.557Z" transform="translate(-183.713 -143.565)" fill="#6fceea"/><path d="M238.326,167.407h0a1.458,1.458,0,0,0,1.851-.094l4.98-4.858a1.039,1.039,0,0,0-.108-1.607h0a1.46,1.46,0,0,0-1.851.094l-4.98,4.858A1.039,1.039,0,0,0,238.326,167.407Z" transform="translate(-195.739 -148.82)" fill="#6fceea"/><path d="M233.2,160.406h0a1.452,1.452,0,0,0,1.836-.229l4.49-5.205a1.045,1.045,0,0,0-.264-1.593h0a1.452,1.452,0,0,0-1.836.229l-4.49,5.205A1.045,1.045,0,0,0,233.2,160.406Z" transform="translate(-194.078 -146.46)" fill="#6fceea"/><path d="M226.558,155.742h0a1.41,1.41,0,0,0,1.749-.534l3.243-5.862a1.079,1.079,0,0,0-.615-1.518h0a1.409,1.409,0,0,0-1.75.533l-3.242,5.862A1.08,1.08,0,0,0,226.558,155.742Z" transform="translate(-191.895 -144.73)" fill="#6fceea"/><path d="M219.124,153.037h0a1.351,1.351,0,0,0,1.615-.79l2.015-6.263a1.132,1.132,0,0,0-.911-1.4h0a1.351,1.351,0,0,0-1.615.79l-2.015,6.263A1.132,1.132,0,0,0,219.124,153.037Z" transform="translate(-189.459 -143.718)" fill="#6fceea"/><rect width="2.622" height="8.778" rx="1.311" transform="translate(23.717)" fill="#6fceea"/></g></g><rect width="2.343" height="16.607" rx="1.171" transform="translate(187.723 156.621) rotate(-68.746)" fill="#6fceea"/><circle cx="4.184" cy="4.184" r="4.184" transform="translate(192.759 154.761)" fill="#443a30"/><circle cx="2.544" cy="2.544" r="2.544" transform="translate(194.398 156.401)" fill="#f4e6dc"/></g></g></svg>